<?xml version="1.0" standalone="no"?>
<!DOCTYPE svg PUBLIC "-//W3C//DTD SVG 1.1//EN" "http://www.w3.org/Graphics/SVG/1.1/DTD/svg11.dtd" >
<!--
2013-9-30: Created.
-->
<svg>
<metadata>
Created by iconfont
</metadata>
<defs>

<font id="K-Star-iconfont" horiz-adv-x="1024" >
  <font-face
    font-family="K-Star-iconfont"
    font-weight="500"
    font-stretch="normal"
    units-per-em="1024"
    ascent="896"
    descent="-128"
  />
    <missing-glyph />
    
    <glyph glyph-name="yijianyichu" unicode="&#944202;" d="M512 826.181818C267.636364 826.181818 69.818182 628.363636 69.818182 384s197.818182-442.181818 442.181818-442.181818 442.181818 197.818182 442.181818 442.181818S756.363636 826.181818 512 826.181818z m0-837.818182c-218.763636 0-395.636364 176.872727-395.636364 395.636364S293.236364 779.636364 512 779.636364s395.636364-176.872727 395.636364-395.636364-176.872727-395.636364-395.636364-395.636364zM721.454545 407.272727H302.545455c-13.963636 0-23.272727-11.636364-23.272728-23.272727 0-13.963636 11.636364-23.272727 23.272728-23.272727h418.90909c13.963636 0 23.272727 9.309091 23.272728 23.272727s-11.636364 23.272727-23.272728 23.272727z"  horiz-adv-x="1024" />

    
    <glyph glyph-name="qingkong" unicode="&#942250;" d="M886.401 500.903h-251.7V815.386c0 22.091-19.899 40-44.447 40H439.148c-24.547 0-44.447-17.909-44.447-40v-314.483h-251.7c-22.315 0-40.404-17.909-40.404-40v-506.471c0-22.091 18.09-40 40.404-40h743.4c22.315 0 40.404 17.909 40.404 40V460.903c0.001 22.092-18.089 40-40.404 40z m-10.72-536.47h-127.98V65c0 17.673-12.088 32-27 32s-27-14.327-27-32v-100.567h-152V104c0 14.912-12.088 27-27 27s-27-12.088-27-27v-139.567h-152V65c0 17.673-12.088 32-27 32s-27-14.327-27-32v-100.567H152.597V207.668h723.084v-243.235z m0 293.235H152.597V450.903H444.479V805.386h137.819v-354.483H875.68v-193.235z"  horiz-adv-x="1024" />

    
    <glyph glyph-name="huihua" unicode="&#58999;" d="M323.527111 48.696889C395.264 7.964444 480.426667-14.222222 568.888889-14.222222c253.895111 0 455.111111 181.134222 455.111111 398.222222s-201.216 398.222222-455.111111 398.222222-455.111111-181.134222-455.111111-398.222222c0-91.306667 35.100444-178.062222 99.783111-248.604444a483.84 483.84 0 0 1 109.966222-86.698667zM82.204444-128l47.445334 186.595556C48.64 147.057778 0 260.437333 0 384c0 282.737778 254.691556 512 568.888889 512s568.888889-229.262222 568.888889-512-254.691556-512-568.888889-512c-110.592 0-213.845333 28.444444-301.169778 77.539556L82.204444-128zM312.888889 298.666667a85.333333 85.333333 0 1 0 0 170.666666 85.333333 85.333333 0 0 0 0-170.666666z m256 0a85.333333 85.333333 0 1 0 0 170.666666 85.333333 85.333333 0 0 0 0-170.666666z m256 0a85.333333 85.333333 0 1 0 0 170.666666 85.333333 85.333333 0 0 0 0-170.666666z"  horiz-adv-x="1137" />

    
    <glyph glyph-name="jiankan" unicode="&#59000;" d="M704 0c237.952 0 454.144 149.504 564.672 384C1158.144 618.496 941.952 768 704 768S249.856 618.496 139.328 384c110.528-234.496 326.72-384 564.672-384z m0 896c314.88 0 585.536-210.56 704-512-118.464-301.44-389.12-512-704-512S118.464 82.56 0 384c118.464 301.44 389.12 512 704 512z m0-768a256 256 0 1 0 0 512 256 256 0 0 0 0-512z m0 128a128 128 0 1 1 0 256 128 128 0 0 1 0-256z"  horiz-adv-x="1408" />

    
    <glyph glyph-name="tianjiafenzu" unicode="&#59001;" d="M791.272727 511.906909V802.909091H279.272727V849.454545a46.545455 46.545455 0 0 0 46.545455 46.545455h512a46.545455 46.545455 0 0 0 46.545454-46.545455v-375.621818a370.036364 370.036364 0 0 1-93.090909 38.074182zM352.907636 11.636364c13.637818-33.792 32.116364-65.070545 54.597819-93.090909H93.090909a46.545455 46.545455 0 0 0-46.545454 46.545454V663.272727a46.545455 46.545455 0 0 0 46.545454 46.545455h512a46.545455 46.545455 0 0 0 46.545455-46.545455v-142.522182a369.896727 369.896727 0 0 1-93.090909-24.203636V616.727273H139.636364v-605.090909h213.271272zM651.636364 197.818182v23.272727a46.545455 46.545455 0 0 0 93.090909 0v-23.272727h23.272727a46.545455 46.545455 0 0 0 0-93.090909H744.727273v-23.272728a46.545455 46.545455 0 0 0-93.090909 0V104.727273h-23.272728a46.545455 46.545455 0 0 0 0 93.090909h23.272728z m46.545454-232.727273a186.181818 186.181818 0 1 1 0 372.363636 186.181818 186.181818 0 0 1 0-372.363636z m0-93.090909a279.272727 279.272727 0 1 0 0 558.545455 279.272727 279.272727 0 0 0 0-558.545455z"  horiz-adv-x="1024" />

    
    <glyph glyph-name="yichu" unicode="&#59002;" d="M791.272727 511.906909V802.909091H279.272727V849.454545a46.545455 46.545455 0 0 0 46.545455 46.545455h512a46.545455 46.545455 0 0 0 46.545454-46.545455v-375.621818a370.036364 370.036364 0 0 1-93.090909 38.074182zM352.907636 11.636364c13.637818-33.792 32.116364-65.070545 54.597819-93.090909H93.090909a46.545455 46.545455 0 0 0-46.545454 46.545454V663.272727a46.545455 46.545455 0 0 0 46.545454 46.545455h512a46.545455 46.545455 0 0 0 46.545455-46.545455v-142.522182a369.896727 369.896727 0 0 1-93.090909-24.203636V616.727273H139.636364v-605.090909h213.271272zM698.181818-34.909091a186.181818 186.181818 0 1 1 0 372.363636 186.181818 186.181818 0 0 1 0-372.363636z m0-93.090909a279.272727 279.272727 0 1 0 0 558.545455 279.272727 279.272727 0 0 0 0-558.545455z m-69.818182 325.818182h139.636364a46.545455 46.545455 0 0 0 0-93.090909h-139.636364a46.545455 46.545455 0 0 0 0 93.090909z"  horiz-adv-x="1024" />

    
    <glyph glyph-name="zuhui" unicode="&#59003;" d="M336.9984 25.6c15.0016-37.1712 35.328-71.5776 60.0576-102.4H51.2a51.2 51.2 0 0 0-51.2 51.2V844.8a51.2 51.2 0 0 0 51.2 51.2h819.2a51.2 51.2 0 0 0 51.2-51.2v-310.784a407.04 407.04 0 0 1-102.4 41.8816V793.6H102.4v-768h234.5984z m108.8512 460.8a411.4944 411.4944 0 0 1-83.8656-102.4H256a51.2 51.2 0 1 0 0 102.4h189.8496z m-125.7472-204.8A410.3168 410.3168 0 0 1 307.2 179.2H256a51.2 51.2 0 0 0 0 102.4h64.1024zM256 691.2h409.6a51.2 51.2 0 0 0 0-102.4H256a51.2 51.2 0 1 0 0 102.4zM665.6 230.4v51.2a51.2 51.2 0 0 0 102.4 0v-51.2h51.3536a51.2 51.2 0 1 0 0-102.4H768v-51.2a51.2 51.2 0 0 0-102.4 0v51.2h-51.0464a51.2 51.2 0 0 0 0 102.4H665.6z m51.2-256a204.8 204.8 0 1 1 0 409.6 204.8 204.8 0 0 1 0-409.6z m0-102.4a307.2 307.2 0 1 0 0 614.4 307.2 307.2 0 0 0 0-614.4z"  horiz-adv-x="1024" />

    
    <glyph glyph-name="lunbo" unicode="&#59009;" d="M328.005818 290.583273c36.352 10.519273 63.441455 30.673455 91.508364 62.510545 6.609455 7.447273 30.440727 36.352 36.026182 42.728727 35.002182 40.029091 67.165091 60.229818 113.338181 60.229819 41.053091 0 88.901818-29.230545 131.49091-71.447273V522.984727h-372.363637v-232.401454z m110.778182-46.871273h253.952a411.322182 411.322182 0 0 1-62.045091 78.336c-26.996364 26.391273-51.339636 40.913455-61.812364 40.913455-13.637818 0-24.203636-6.656-43.287272-28.485819-4.375273-4.933818-28.346182-33.978182-36.258909-42.961454a349.789091 349.789091 0 0 0-50.594909-47.802182z m-203.869091-8.192V616.075636h558.545455v-465.454545h-558.545455V235.52zM419.886545 792.529455a419.048727 419.048727 0 0 1-192.698181-715.869091l-47.476364-82.292364c-184.552727 157.090909-236.544 428.218182-111.010909 645.585455C194.187636 857.227636 454.981818 947.758545 683.240727 866.490182L437.154909 675.002182 419.84 792.529455z m188.648728-809.937455a419.048727 419.048727 0 0 1 192.698182 715.869091l47.476363 82.292364c184.506182-157.044364 236.450909-428.171636 111.010909-645.53891-125.486545-217.367273-386.327273-307.898182-614.586182-226.629818l246.132364 191.534546 17.221818-117.527273z"  horiz-adv-x="1070" />

    
    <glyph glyph-name="lunbo-xuanzhong" unicode="&#59010;" d="M328.001345 290.577565c36.351504 10.519129 63.440589 30.673036 91.507116 62.509693 6.609364 7.447171 30.440312 36.351504 36.025691 42.728145 35.001705 40.028545 67.164175 60.228997 113.336636 60.228996 41.052531 0 88.900606-29.230147 131.489116-71.446298V522.97585h-372.358559v-232.398285z m-93.089639-54.224715V616.06549h558.537838v-465.448198h-558.537838V235.515043v0.837807z m184.969114 556.210597a419.043013 419.043013 0 0 1-192.695554-715.859329l-47.475717-82.337787c-184.550211 157.088767-236.540774 428.212343-111.009395 645.576652C194.184988 857.214202 454.975614 947.743876 683.23141 866.476621L437.148948 674.991232 419.834275 792.516902z m188.646155-809.972955a419.043013 419.043013 0 0 1 192.695554 715.859329l47.475716 82.291242c184.503666-157.042222 236.447685-428.165798 111.009395-645.530107-125.484834-217.364309-386.322005-307.893983-614.577801-226.626728l246.129007 191.531934 17.221584-117.52567z"  horiz-adv-x="1070" />

    
    <glyph glyph-name="quanping" unicode="&#59011;" d="M629.4016 194.2016a51.2 51.2 0 1 0 72.3968 72.3968L921.6 46.7968V281.6a51.2 51.2 0 1 0 102.4 0v-409.6h-409.6a51.2 51.2 0 1 0 0 102.4h234.8032l-219.8016 219.8016z m72.3968 307.2a51.2 51.2 0 1 0-72.3968 72.3968L849.2032 793.6H614.4a51.2 51.2 0 1 0 0 102.4h409.6v-409.6a51.2 51.2 0 1 0-102.4 0V721.2032l-219.8016-219.8016z m-307.2 72.3968a51.2 51.2 0 1 0-72.3968-72.3968L102.4 721.2032V486.4a51.2 51.2 0 1 0-102.4 0V896h409.6a51.2 51.2 0 1 0 0-102.4H174.7968l219.8016-219.8016z m-72.3968-307.2a51.2 51.2 0 1 0 72.3968-72.3968L174.7968-25.6H409.6a51.2 51.2 0 1 0 0-102.4H0v409.6a51.2 51.2 0 1 0 102.4 0v-234.8032l219.8016 219.8016z"  horiz-adv-x="1024" />

    
    <glyph glyph-name="guanbi" unicode="&#59013;" d="M512.000113 422.89372L976.848301 887.685046a27.464425 27.464425 0 1 0 38.836858-38.836858L550.893833 384l464.791326-464.848188a27.464425 27.464425 0 1 0-38.836858-38.836858L512.000113 345.10628 47.151925-119.685046a27.464425 27.464425 0 1 0-38.836858 38.836858L473.106393 384 8.315067 848.848188A27.464425 27.464425 0 1 0 47.151925 887.685046L512.000113 422.89372z"  horiz-adv-x="1024" />

    
    <glyph glyph-name="shipinyuan" unicode="&#59014;" d="M730.624 357.632C753.728 380.8 768 412.672 768 448a127.68 127.68 0 0 1-45.952 98.432 32 32 0 1 0 41.024 48.96A191.616 191.616 0 0 0 832 448c0-58.88-26.496-111.552-68.224-146.752a31.872 31.872 0 0 0-54.848 22.4 32 32 0 0 0 13.184 25.856c3.84 3.584 6.72 6.272 8.512 8.128zM320 448c0 59.136 26.688 112 68.736 147.2a31.872 31.872 0 0 0 54.336-22.912 32 32 0 0 0-13.12-25.856 324.48 324.48 0 0 1-7.104-6.592A127.616 127.616 0 0 1 384 448c0-30.912 10.944-59.264 29.184-81.344 3.392-4.16 8.96-9.856 16.704-17.152a32 32 0 1 0-41.792-48.192A191.616 191.616 0 0 0 320 448z m492.736-188.928A255.36 255.36 0 0 1 896 448a255.36 255.36 0 0 1-92.16 196.672 33.152 33.152 0 0 0-9.6 23.296 32 32 0 0 0 55.168 22.016A319.232 319.232 0 0 0 960 448a319.232 319.232 0 0 0-109.952-241.408 31.936 31.936 0 0 0-55.872 21.312c0 9.152 3.84 17.344 9.92 23.168l8.64 8zM192 448c0 96.128 42.368 182.336 109.44 240.96a31.936 31.936 0 1 0 46.4-43.968l-9.536-8.96A255.36 255.36 0 0 1 256 448c0-72.96 30.528-138.88 79.552-185.472l12.224-11.52a31.936 31.936 0 0 0-22.208-55.04 31.936 31.936 0 0 0-24.576 11.456A319.232 319.232 0 0 0 192 448z m256-512v64H64a64 64 0 0 0-64 64V832a64 64 0 0 0 64 64h1024a64 64 0 0 0 64-64v-768a64 64 0 0 0-64-64h-384v-64h160a32 32 0 1 0 0-64h-576a32 32 0 1 0 0 64H448z m0 128h640V832H64v-768h384z m128 288a96 96 0 1 0 0 192 96 96 0 0 0 0-192z"  horiz-adv-x="1152" />

    
    <glyph glyph-name="touping" unicode="&#59015;" d="M796.387556 99.555556H1024V782.222222H113.777778v-682.666666h227.498666l-75.889777-113.777778H113.777778a113.777778 113.777778 0 0 0-113.777778 113.777778V782.222222a113.777778 113.777778 0 0 0 113.777778 113.777778h910.222222a113.777778 113.777778 0 0 0 113.777778-113.777778v-682.666666a113.777778 113.777778 0 0 0-113.777778-113.777778h-151.779556l-75.832888 113.777778z m-227.555556 113.777777l227.555556-341.333333h-455.111112l227.555556 341.333333z"  horiz-adv-x="1137" />

    
    <glyph glyph-name="shishiguiji" unicode="&#59018;" d="M716.77993 332.801434h76.79785a127.996416 127.996416 0 1 0 0-255.992833H298.487642a153.646898 153.646898 0 1 1 0-102.397133h495.090138a230.393549 230.393549 0 0 1 0 460.787098h-563.184231a127.996416 127.996416 0 1 0 0 255.992833h495.090137a153.646898 153.646898 0 1 1 0 102.397133H230.393549a230.393549 230.393549 0 0 1 0-460.787098H716.77993z"  horiz-adv-x="1024" />

    
    <glyph glyph-name="lishiguiji" unicode="&#59019;" d="M336.988964 332.801434H230.393549a230.393549 230.393549 0 0 0 0 460.787098h495.090137a153.646898 153.646898 0 1 0 0-102.397133H230.393549a127.996416 127.996416 0 1 1 0-255.992833h166.651334a409.28134 409.28134 0 0 1-60.055919-102.397132z m24.984901-358.389966H298.487642a153.646898 153.646898 0 1 0 0 102.397133h21.605795c9.369338-36.350982 23.551341-70.70522 41.880428-102.397133zM716.77993-25.588531999999987a204.794266 204.794266 0 1 1 0 409.588532 204.794266 204.794266 0 0 1 0-409.588532z m0-102.397132a307.191399 307.191399 0 1 0 0 614.382797 307.191399 307.191399 0 0 0 0-614.382797z m25.599283 358.389965h76.695453a51.198566 51.198566 0 1 0 0-102.397133H742.379213a51.198566 51.198566 0 1 0 0 102.397133zM665.581364 179.205734v102.397133a51.198566 51.198566 0 1 0 102.397133 0v-102.397133a51.198566 51.198566 0 1 0-102.397133 0z m51.198566 0h51.198567v-51.198566h-51.198567v51.198566z"  horiz-adv-x="1024" />

    
    <glyph glyph-name="kuangxuan" unicode="&#59020;" d="M101.586286 896H203.172572v-102.353941H101.586286v-102.35394H0V896h101.586286z m0-1023.539407H0v204.707881h101.586286v-102.353941H203.172572v-102.35394H101.586286zM914.327753 896h101.586286v-204.707881h-101.586286V793.646059h-101.586287V896h101.586287zM304.810035 896h152.353841v-102.353941H304.758859V896z m253.940127 0h152.405018v-102.353941h-152.405018V896zM304.758859-25.185467h152.405017v-102.35394H304.758859v102.35394zM101.586286 588.938178v-153.530911H0V588.938178h101.586286z m0-255.884852v-153.530911H0v153.530911h101.586286zM1023.539407 588.938178v-153.530911h-101.586286V588.938178H1023.539407z m-294.881703-446.007297l-137.051927-155.57799L558.750162 537.761207l457.163877-303.786496-202.404918-41.70923 155.168574-270.470289L883.826278-127.539407l-155.168574 270.470288z"  horiz-adv-x="1024" />

    
    <glyph glyph-name="shipin" unicode="&#59022;" d="M597.7856 85.8112a411.2384 411.2384 0 0 0-171.6224 0L370.4576-25.6h283.0336l-55.7056 111.4112z m97.3824 34.1504l86.9376-173.8752A51.2 51.2 0 0 0 736.3328-128H287.616a51.2 51.2 0 0 0-45.7728 74.0864l86.9376 173.8752a409.6 409.6 0 1 0 366.4384 0zM511.9744 281.6a204.8 204.8 0 1 0 0 409.6 204.8 204.8 0 0 0 0-409.6z m0 102.4a102.4 102.4 0 1 1 0 204.8 102.4 102.4 0 0 1 0-204.8z m0-204.8A307.2 307.2 0 1 1 511.9744 793.6a307.2 307.2 0 0 1 0-614.4z"  horiz-adv-x="1024" />

    
    <glyph glyph-name="duihuakuang" unicode="&#59023;" d="M303.028148 16.763259C380.776296-27.875556 473.088-52.148148 568.888889-52.148148c275.038815 0 493.037037 198.352593 493.037037 436.148148S843.927704 820.148148 568.888889 820.148148 75.851852 621.795556 75.851852 384c0-100.010667 38.039704-194.977185 108.088889-272.232296 33.298963-36.712296 79.758222-72.362667 119.087407-95.004445zM82.223407-128l47.445334 186.595556C48.658963 147.114667 0 260.475259 0 384 0 666.775704 254.710519 896 568.888889 896c314.17837 0 568.888889-229.224296 568.888889-512S883.067259-128 568.888889-128c-110.592 0-213.82637 28.406519-301.169778 77.558519L82.185481-128zM834.37037 308.148148a75.851852 75.851852 0 1 0 0 151.703704 75.851852 75.851852 0 0 0 0-151.703704z m-265.481481 0a75.851852 75.851852 0 1 0 0 151.703704 75.851852 75.851852 0 0 0 0-151.703704z m-265.481482 0a75.851852 75.851852 0 1 0 0 151.703704 75.851852 75.851852 0 0 0 0-151.703704z"  horiz-adv-x="1137" />

    
    <glyph glyph-name="duihuakuang-xuanzhong" unicode="&#59024;" d="M82.185481-128l47.445334 186.595556C48.658963 147.114667 0 260.475259 0 384 0 666.775704 254.710519 896 568.888889 896c314.17837 0 568.888889-229.224296 568.888889-512S883.067259-128 568.888889-128c-110.592 0-213.82637 28.406519-301.169778 77.558519L82.185481-128zM834.37037 308.148148a75.851852 75.851852 0 1 1 0 151.703704 75.851852 75.851852 0 0 1 0-151.703704z m-265.481481 0a75.851852 75.851852 0 1 1 0 151.703704 75.851852 75.851852 0 0 1 0-151.703704z m-265.481482 0a75.851852 75.851852 0 1 1 0 151.703704 75.851852 75.851852 0 0 1 0-151.703704z"  horiz-adv-x="1137" />

    
    <glyph glyph-name="yuyinxiaoxi" unicode="&#59025;" d="M85.333333 896h853.333334a85.333333 85.333333 0 0 0 85.333333-85.333333v-853.333334a85.333333 85.333333 0 0 0-85.333333-85.333333H85.333333a85.333333 85.333333 0 0 0-85.333333 85.333333V810.666667a85.333333 85.333333 0 0 0 85.333333 85.333333z m484.864-240.469333A382.805333 382.805333 0 0 0 682.666667 384a382.805333 382.805333 0 0 0-112.469334-271.530667l60.330667-60.330666A467.882667 467.882667 0 0 1 768 384c0 129.621333-52.522667 246.954667-137.472 331.861333l-60.330667-60.330666z m-120.661333-120.661334A212.650667 212.650667 0 0 0 512 384c0-58.88-23.893333-112.213333-62.464-150.869333l60.330667-60.330667A297.728 297.728 0 0 1 597.333333 384a297.728 297.728 0 0 1-87.466666 211.2l-60.330667-60.330667zM341.333333 298.666667a85.333333 85.333333 0 1 1 0 170.666666 85.333333 85.333333 0 0 1 0-170.666666z"  horiz-adv-x="1024" />

    
    <glyph glyph-name="dingwei" unicode="&#59026;" d="M85.333333 896h853.333334a85.333333 85.333333 0 0 0 85.333333-85.333333v-853.333334a85.333333 85.333333 0 0 0-85.333333-85.333333H85.333333a85.333333 85.333333 0 0 0-85.333333 85.333333V810.666667a85.333333 85.333333 0 0 0 85.333333 85.333333z m426.666667-853.333333c184.874667 168.106667 277.333333 303.232 277.333333 405.333333a277.333333 277.333333 0 1 1-554.666666 0c0-102.101333 92.458667-237.226667 277.333333-405.333333z m0 256a149.333333 149.333333 0 1 0 0 298.666666 149.333333 149.333333 0 0 0 0-298.666666z"  horiz-adv-x="1024" />

    
    <glyph glyph-name="yuyintonghua" unicode="&#59027;" d="M85.333333 896h853.333334a85.333333 85.333333 0 0 0 85.333333-85.333333v-853.333334a85.333333 85.333333 0 0 0-85.333333-85.333333H85.333333a85.333333 85.333333 0 0 0-85.333333 85.333333V810.666667a85.333333 85.333333 0 0 0 85.333333 85.333333z m755.626667-761.856c18.944 56.661333 21.162667 83.285333-26.666667 108.842667-31.146667 16.64-63.445333 36.693333-96.810666 50.005333-64.512 26.666667-60.074667-51.114667-105.685334-75.52-30.037333-15.573333-72.277333 13.312-97.877333 29.952-45.653333 27.776-85.674667 65.578667-119.04 108.885333-16.682667 22.229333-54.528 63.317333-50.048 94.464 7.765333 49.962667 65.621333 52.181333 48.938667 112.213334-8.917333 32.213333-24.490667 64.426667-36.693334 95.530666-15.616 42.24-22.272 68.864-68.992 66.645334-33.365333-2.218667-55.637333-16.64-76.8-43.306667-56.704-73.344-47.786667-172.202667-9.984-252.202667 53.418667-114.432 144.64-221.098667 242.517334-289.962666 66.773333-46.677333 154.624-88.874667 234.752-96.682667 58.965333-4.437333 141.269333 26.666667 162.389333 91.136z"  horiz-adv-x="1024" />

    
    <glyph glyph-name="shipin1" unicode="&#59028;" d="M645.589333 159.488a298.666667 298.666667 0 1 1-267.178666 0l-48.853334-97.706667A42.666667 42.666667 0 0 1 367.701333 0h288.597334a42.666667 42.666667 0 0 1 38.144 61.738667l-48.853334 97.706666zM85.333333 896h853.333334a85.333333 85.333333 0 0 0 85.333333-85.333333v-853.333334a85.333333 85.333333 0 0 0-85.333333-85.333333H85.333333a85.333333 85.333333 0 0 0-85.333333 85.333333V810.666667a85.333333 85.333333 0 0 0 85.333333 85.333333z m426.666667-554.666667a85.333333 85.333333 0 1 1 0 170.666667 85.333333 85.333333 0 0 1 0-170.666667z m0-85.333333a170.666667 170.666667 0 1 0 0 341.333333 170.666667 170.666667 0 0 0 0-341.333333z"  horiz-adv-x="1024" />

    
    <glyph glyph-name="yuyintonghua1" unicode="&#59021;" d="M906.752 84.3776c22.7328 67.9424 25.3952 99.9424-32 130.56-37.376 20.0192-76.1344 44.032-116.1728 60.0064-77.4144 32-72.0896-61.2864-126.8224-90.624-36.0448-18.6368-86.7328 15.9744-117.4528 35.9936-54.784 33.28-102.8096 78.6432-142.848 130.6112-20.0192 26.624-65.4336 75.9808-60.0576 113.3056 9.3184 59.9552 78.7456 62.6176 58.7264 134.6048-10.7008 38.656-29.3888 77.312-44.032 114.6368-18.7392 50.6368-26.7264 82.6368-82.7904 79.9744-40.0384-2.6624-66.7648-19.968-92.16-52.0192-68.0448-87.9616-57.344-206.592-11.9808-302.5408 64.1024-137.2672 173.568-265.216 291.0208-347.8528 80.128-56.0128 185.5488-106.6496 281.7024-115.968 70.7584-5.3248 169.5232 32 194.8672 109.312z m97.4336-31.5392l-0.1024-0.4096-1.7408-5.0176-3.4816-10.0352c-0.768-2.1504-0.768-2.1504-2.9184-7.5776-1.024-2.6112-1.024-2.6112-6.5536-12.8-1.024-1.6896-1.792-2.816-2.6624-4.0448-53.4528-95.8464-173.1584-148.224-284.7744-139.776-107.9296 10.4448-227.2256 61.7984-330.6496 134.0928C237.056 101.6832 116.9408 244.3776 46.592 395.1104c-65.9456 139.4176-65.4336 293.888 24.3712 409.9584C114.6368 860.16 167.5264 890.9824 238.4384 895.6928 329.9328 900.096 381.3888 855.552 412.1088 776.0384c1.9456-5.0688 8.2944-22.3744 9.6256-26.0608 3.2768-8.3456 5.3248-13.2096 14.336-34.5088 16.8448-40.0896 25.2416-62.1056 32.7168-89.1904 20.48-73.728 0.3072-124.7744-46.4384-173.6192 1.5872-2.304 3.3792-4.7104 5.3248-7.3216 4.352-5.7856 21.9648-27.9552 24.8832-31.8976 34.048-44.1344 73.0624-80.1792 117.6064-107.3152 16.5376-10.752 14.848-9.6768 19.968-12.8l0.9728-0.6144 0.4096 0.7168c19.6096 33.0752 35.072 52.6336 64.7168 70.3488 43.1616 25.7536 92.5184 26.0096 140.3392 6.2976 27.904-11.1616 51.5072-23.2448 90.1632-44.7488 36.3008-20.224 27.392-15.3088 36.2496-20.0192 105.5744-56.4224 120.1664-134.656 81.2032-252.4672z"  horiz-adv-x="1024" />

    
    <glyph glyph-name="xiaohui-quxiao" unicode="&#59029;" d="M763.42272 588.8a409.2416 409.2416 0 0 1-115.6096-18.0736c23.1424 24.7296 37.376 58.112 37.376 94.8736 0 76.3392-61.3376 138.24-136.96 138.24-75.6736 0-136.96-61.9008-136.96-138.24s61.2864-138.24 136.96-138.24c1.536 0 3.072 0 4.608 0.1024a410.7264 410.7264 0 0 1-173.7216-220.928c-25.088-39.6288-56.1664-109.2096-93.3376-208.7936a23.0912 23.0912 0 0 1 21.4016-31.1808h67.4304c9.3184-32.5632 22.528-63.488 39.1168-92.16H307.23072a113.152 113.152 0 0 0-40.2432 7.3728 115.5072 115.5072 0 0 0-66.56 148.48c65.2288 174.848 109.8752 262.0416 167.1168 293.632 24.9856 13.824 56.0128 23.9104 89.9072 30.2592A230.5024 230.5024 0 0 0 319.92832 665.6c0 127.232 102.1952 230.4 228.3008 230.4 126.0544 0 228.2496-103.168 228.2496-230.4A231.936 231.936 0 0 0 763.42272 588.8z m95.0272-9.8816c5.9392 12.2368 9.3184 26.0096 9.3184 40.6016 0 35.0208-19.3536 65.4848-47.8208 81.0496a276.4288 276.4288 0 0 1-34.304 103.0656c96.5632-4.8128 173.4144-85.4016 173.4144-184.1152 0-25.0368-4.9152-48.896-13.8752-70.656a406.5792 406.5792 0 0 1-86.7328 30.0544zM36.38272 270.6944c40.96 100.096 73.5744 153.1392 116.48 176.8448a248.32 248.32 0 0 0 60.1088 22.528A184.6272 184.6272 0 0 0 137.34912 619.52c0 98.7136 76.8512 179.3024 173.4656 184.1152a276.4288 276.4288 0 0 1-34.304-103.0656c-28.5184-15.5648-47.872-46.08-47.872-81.0496 0-47.7184 35.9936-87.04 82.0224-91.648 12.288-21.504 27.2896-41.1648 44.544-58.4704a249.6512 249.6512 0 0 1-9.6256-5.0688c-29.4912-16.2816-54.6304-41.1136-78.9504-77.824-27.2384-3.3792-52.1216-10.0352-69.888-19.8656-19.3024-10.5984-45.9264-57.7536-79.872-141.3632l-28.0576-73.6256a45.568 45.568 0 0 0-58.9824-26.5216 46.2336 46.2336 0 0 0-26.2656 59.5456l7.68 20.1216h-0.512c5.4784 14.592 14.0288 36.5568 25.7024 65.8432zM768.54272-25.6a204.8 204.8 0 1 1 0 409.6 204.8 204.8 0 0 1 0-409.6z m0-102.4a307.2 307.2 0 1 0 0 614.4 307.2 307.2 0 0 0 0-614.4z m-76.8 358.4h153.6a51.2 51.2 0 0 0 0-102.4h-153.6a51.2 51.2 0 0 0 0 102.4z"  horiz-adv-x="1075" />

    
    <glyph glyph-name="xiaohui1" unicode="&#59030;" d="M508.182756 405.048889A256.113778 256.113778 0 0 0 355.436089 640c0 141.368889 113.550222 256 253.667555 256 140.060444 0 253.610667-114.631111 253.610667-256a256.113778 256.113778 0 0 0-152.576-234.837333c37.774222-7.111111 72.419556-18.432 100.238222-33.962667 63.317333-35.271111 112.924444-132.323556 185.230223-326.030222 5.404444-14.449778 8.135111-29.752889 8.135111-45.169778A127.431111 127.431111 0 0 0 876.936533-128H341.327644a125.724444 125.724444 0 0 0-44.714666 8.192 128.341333 128.341333 0 0 0-73.955556 164.977778c72.476444 194.275556 122.083556 291.157333 185.685334 326.257778 27.761778 15.36 62.236444 26.567111 99.896888 33.621333z m469.276444-97.223111a186.88 186.88 0 0 1-53.020444 18.204444c-27.591111 42.666667-56.035556 71.338667-89.486223 89.998222a274.830222 274.830222 0 0 1-11.377777 5.973334c19.171556 19.285333 35.84 41.073778 49.436444 64.910222A102.058667 102.058667 0 0 1 964.1472 588.8c0 38.912-21.504 72.760889-53.134222 90.055111a307.143111 307.143111 0 0 1-38.115556 114.517333c107.292444-5.347556 192.682667-94.890667 192.682667-204.572444 0-70.997333-35.84-133.575111-90.168889-170.325333 18.773333-5.575111 36.067556-12.572444 51.143111-21.048889 56.888889-31.744 97.678222-110.364444 157.582222-269.425778l7.736889-22.357333a51.370667 51.370667 0 0 0-29.184-66.161778 50.631111 50.631111 0 0 0-65.536 29.468444l-33.564444 88.177778c-36.465778 88.746667-65.194667 139.036444-86.129778 150.755556zM40.442311 201.159111c45.511111 111.274667 81.749333 170.211556 129.422222 196.551111a275.911111 275.911111 0 0 0 66.787556 25.031111A205.141333 205.141333 0 0 0 152.570311 588.8c0 109.681778 85.390222 199.224889 192.739556 204.572444a307.143111 307.143111 0 0 1-38.115556-114.517333c-31.687111-17.294222-53.191111-51.2-53.191111-90.055111 0-53.020444 39.992889-96.711111 91.136-101.831111 13.653333-23.893333 30.321778-45.738667 49.493333-64.967111a277.390222 277.390222 0 0 1-10.695111-5.632c-32.768-18.090667-60.700444-45.681778-87.722666-86.471111-30.264889-3.754667-57.912889-11.150222-77.653334-22.072889-21.447111-11.776-51.029333-64.170667-88.746666-157.070222l-31.175112-81.806223a50.631111 50.631111 0 0 0-65.536-29.468444 51.370667 51.370667 0 0 0-29.184 66.161778l8.533334 22.357333h-0.568889c6.087111 16.213333 15.587556 40.618667 28.558222 73.159111zM609.103644 486.4c84.024889 0 152.120889 68.778667 152.120889 153.6s-68.096 153.6-152.120889 153.6c-84.081778 0-152.177778-68.778667-152.177777-153.6s68.096-153.6 152.177777-153.6z m152.177778-204.8c-72.590222 40.504889-231.936 39.936-304.355555 0-31.630222-17.464889-78.108444-108.316444-139.377778-272.554667a25.656889 25.656889 0 0 1 23.722667-34.645333h535.665777a25.486222 25.486222 0 0 1 23.779556 34.645333c-61.269333 164.010667-107.747556 254.862222-139.434667 272.554667z"  horiz-adv-x="1195" />

    
    <glyph glyph-name="maikefeng-yayin" unicode="&#59031;" d="M722.840034 247.45061l65.949363-65.949364A371.54112 371.54112 0 0 0 558.501853 61.051739V-34.916918h139.624622a46.541541 46.541541 0 0 0 0-93.083082H325.794149a46.541541 46.541541 0 0 0 0 93.083082h139.624622v95.968657A372.378868 372.378868 0 0 0 139.627985 430.49849V477.040031a46.541541 46.541541 0 1 0 93.083082 0v-46.541541a279.249245 279.249245 0 0 1 490.128967-183.04788z m49.24095 81.26153A278.551122 278.551122 0 0 1 791.209557 430.49849V477.040031a46.541541 46.541541 0 0 0 93.083082 0v-46.541541c0-62.039874-15.172542-120.542591-42.027012-171.970993l-70.184643 70.184643zM735.359708 365.340333L314.438013 786.30857A232.707704 232.707704 0 0 0 744.668016 663.206194v-232.707704c0-22.619189-3.257908-44.493713-9.261766-65.158157z m-45.564168-84.891771A232.707704 232.707704 0 0 0 279.252608 430.49849V663.206194c0 8.935976 0.465415 17.685786 1.489329 26.389054l409.100144-409.100144zM153.125032 724.082529A46.122667 46.122667 0 1 0 218.376273 789.33377L870.795592 136.91445a46.122667 46.122667 0 0 0-65.25124-65.25124L153.125032 724.082529z"  horiz-adv-x="1024" />

    
    <glyph glyph-name="maikefeng" unicode="&#59032;" d="M740.354605 136.518823A370.307743 370.307743 0 0 0 558.317645 60.9686V-34.957853h139.56322a46.521073 46.521073 0 1 0 0-93.042147H325.712279a46.521073 46.521073 0 1 0 0 93.042147h139.563219v95.926453A372.215107 372.215107 0 0 0 139.627985 430.252879V476.773953a46.521073 46.521073 0 1 0 93.042147 0v-46.521074a279.12644 279.12644 0 0 1 441.205859-227.301964l-33.495173 33.495173A232.605366 232.605366 0 0 0 279.191205 430.252879l0.046521 167.336301-126.072108 126.072108A46.102384 46.102384 0 0 0 218.341641 788.930354L870.474047 136.797949a46.102384 46.102384 0 0 0-65.222545-65.222545l-64.896897 64.943419z m31.448245 191.992469A278.428624 278.428624 0 0 1 790.923011 430.252879V476.773953a46.521073 46.521073 0 1 0 93.042147 0v-46.521074c0-62.012591-15.16587-120.48958-42.008529-171.895365l-70.153779 70.153778zM735.097723 365.123377L314.361137 785.906484A232.605366 232.605366 0 0 0 744.401938 662.858246v-232.605367c0-22.609242-3.256475-44.474146-9.257694-65.129502z"  horiz-adv-x="1024" />

    
    <glyph glyph-name="yinliang-jingyin" unicode="&#59033;" d="M506.368 871.7824C567.1936 920.4224 614.4 892.672 614.4 816.128v-869.2736c0-76.4416-47.2576-97.28-101.2736-48.64l-242.944 208.5376h-135.168C60.416 107.1616 0.0512 169.3184 0 245.8624v285.184c0 76.4928 60.7744 139.008 135.0144 139.008h128.3072L506.368 871.7824zM994.4576 384l116.8384-116.8384a51.5072 51.5072 0 0 0-72.8576-72.8576L921.6 311.1424l-116.8384-116.8384a51.5072 51.5072 0 0 0-72.8576 72.8576L848.7424 384l-116.8384 116.8384a51.5072 51.5072 0 1 0 72.8576 72.8576L921.6 456.8576l116.8384 116.8384a51.5072 51.5072 0 1 0 72.8576-72.8576L994.4576 384z"  horiz-adv-x="1126" />

    
    <glyph glyph-name="yinliang" unicode="&#59034;" d="M506.368 871.7824C567.1936 920.4224 614.4 892.672 614.4 816.128v-869.2736c0-76.4416-47.2576-97.28-101.2736-48.64l-242.944 208.5376h-135.168C60.416 107.1616 0.0512 169.3184 0 245.8624v285.184c0 76.4928 60.7744 139.008 135.0144 139.008h128.3072L506.368 871.7824z m213.0944-803.9936a51.2 51.2 0 0 0-31.7952 91.3408c3.072 2.4576 5.1712 4.096 7.1168 5.2224A255.8464 255.8464 0 0 1 819.2 384c0 88.9856-45.4144 167.424-114.3296 213.2992-3.4816 2.304-11.776 8.1408-12.1344 8.3968a51.2 51.2 0 1 0 56.8832 84.992l10.24-7.0144A358.0928 358.0928 0 0 0 921.6 384a358.1952 358.1952 0 0 0-170.4448-305.2032 51.1488 51.1488 0 0 0-31.744-11.008z m148.224-29.6448A459.6736 459.6736 0 0 1 1024 384a459.52 459.52 0 0 1-145.6128 336.128l-9.3696 8.96a51.1488 51.1488 0 0 0 56.8832 85.1456c1.2288-0.768 11.264-9.216 15.104-12.6976A561.152 561.152 0 0 0 1126.4 384a561.664 561.664 0 0 0-180.0192-412.7744c-3.6864-3.3792-14.336-13.2608-16.0768-14.6944a51.2 51.2 0 0 0-67.584 76.8c0.0512 0.4096 3.4816 3.4816 4.9664 4.8128z"  horiz-adv-x="1126" />

    
    <glyph glyph-name="qingchu" unicode="&#59035;" d="M510.545 835.085c27.096 0 49.05-21.962 49.05-49.048v-294.291c0-27.087-21.954-49.048-49.05-49.048-27.095 0-49.048 21.961-49.048 49.048v294.29c0 27.087 21.953 49.049 49.048 49.049zM248.955 475.397h523.182c36.116 0 65.398-29.282 65.398-65.398v-130.795c0-36.115-29.282-65.397-65.398-65.397H248.955c-36.116 0-65.398 29.282-65.398 65.397V410c0 36.116 29.282 65.398 65.398 65.398zM232.604 197.456V1.2c0-36.084 29.282-65.334 65.398-65.334h425.087c36.1 0 65.398 29.25 65.398 65.334V197.456H232.604z m114.447-221.995c0-8.987-7.25-16.268-16.35-16.268-9.037 0-16.35 7.393-16.35 16.268V137.647c0 8.98 7.25 16.269 16.35 16.269 9.036 0 16.35-7.399 16.35-16.269v-162.186z m114.446 0c0-8.987-7.249-16.268-16.35-16.268-9.037 0-16.35 7.393-16.35 16.268V137.647c0 8.98 7.249 16.269 16.35 16.269 9.037 0 16.35-7.399 16.35-16.269v-162.186z m130.796 0c0-8.987-7.248-16.268-16.35-16.268-9.036 0-16.35 7.393-16.35 16.268V137.647c0 8.98 7.25 16.269 16.35 16.269 9.038 0 16.35-7.399 16.35-16.269v-162.186z m114.447 0c0-8.987-7.25-16.268-16.35-16.268-9.037 0-16.35 7.393-16.35 16.268V137.647c0 8.98 7.248 16.269 16.35 16.269 9.036 0 16.35-7.399 16.35-16.269v-162.186z"  horiz-adv-x="1024" />

    
    <glyph glyph-name="zhengli" unicode="&#59036;" d="M19.82208 896h589.568v-651.63776H19.82208V896z m682.67008 0h310.2976v-279.2704h-310.2976V896z m0-372.36224h310.2976v-279.27552h-310.2976V523.63776zM19.82208 151.27552h248.23808V-128H19.82208v279.27552z m341.33504 0h248.23296V-128H361.15712v279.27552z m341.33504 0h310.2976V-128h-310.2976v279.27552z"  horiz-adv-x="1024" />

    
    <glyph glyph-name="baocun" unicode="&#59037;" d="M102.4 588.8h819.2V793.6H102.4v-204.8z m0-102.4v-512h819.2V486.4H102.4zM51.2 896h921.6a51.2 51.2 0 0 0 51.2-51.2v-921.6a51.2 51.2 0 0 0-51.2-51.2H51.2a51.2 51.2 0 0 0-51.2 51.2V844.8a51.2 51.2 0 0 0 51.2 51.2z m153.6-512h204.8v-102.4H204.8v102.4z m0-204.8h204.8v-102.4H204.8v102.4zM716.8 742.4h102.4v-102.4h-102.4z"  horiz-adv-x="1024" />

    
    <glyph glyph-name="lingcunwei" unicode="&#59038;" d="M512-25.6v-51.2a51.2 51.2 0 0 1 51.2-51.2H51.2a51.2 51.2 0 0 0-51.2 51.2V844.8a51.2 51.2 0 0 0 51.2 51.2h921.6a51.2 51.2 0 0 0 51.2-51.2v-512a51.2 51.2 0 0 1-51.2 51.2h-51.2V486.4H102.4v-512h409.6zM102.4 588.8h819.2V793.6H102.4v-204.8z m102.4-204.8h204.8v-102.4H204.8v102.4z m0-204.8h204.8v-102.4H204.8v102.4zM716.8 742.4h102.4v-102.4h-102.4zM563.2 384h409.6a51.2 51.2 0 0 0 51.2-51.2v-409.6a51.2 51.2 0 0 0-51.2-51.2h-409.6a51.2 51.2 0 0 0-51.2 51.2v409.6a51.2 51.2 0 0 0 51.2 51.2z m239.7696-381.44v-53.76l144.2304 121.344-144.2304 121.344v-70.0928c-90.2144-0.8192-164.352 39.7312-177.664 103.8336-5.7856 27.5456 0.512 55.808 16.0768 81.9712-41.1136-45.2608-60.9792-102.5536-49.2544-158.9248 18.2272-87.4496 106.7008-145.2032 210.8416-145.7152z"  horiz-adv-x="1024" />

    
    <glyph glyph-name="shifang" unicode="&#59039;" d="M796.507357 390.422726l65.759088 65.657135a196.66555 196.66555 0 0 1-278.176233 278.125257L516.088179 666.203085A51.027013 51.027013 0 1 0 444.059039 738.283201L512.010096 806.285234A298.617623 298.617623 0 1 0 934.295585 383.999745l-68.002034-68.002033a51.077989 51.077989 0 0 0-85.843645 37.212507c0 13.50865 5.250532 25.793875 13.763529 34.867609l2.293922 2.344898zM512.010096-38.285744A298.617623 298.617623 0 1 0 89.724607 383.999745L157.72664 452.001778a50.976037 50.976037 0 0 0 68.81765-75.393558l-64.739567-64.739567a196.66555 196.66555 0 1 1 278.125257-278.074281l68.002033 68.002033a51.128965 51.128965 0 0 0 88.4944-34.561752 50.823109 50.823109 0 0 0-16.46526-37.518364L512.010096-38.285744zM16.777898 809.190868A49.548708 49.548708 0 0 0 86.818973 879.231942L1007.242293-41.140402a49.548708 49.548708 0 1 0-70.041074-70.041074L16.777898 809.139892z"  horiz-adv-x="1028" />

    
    <glyph glyph-name="MENU" unicode="&#59040;" d="M0 896h256v-256H0V896z m768 0h256v-256h-256V896zM384 896h256v-256h-256V896zM0 128h256v-256H0v256z m768 0h256v-256h-256v256z m-384 0h256v-256h-256v256zM0 512h256v-256H0v256z m768 0h256v-256h-256v256z m-384 0h256v-256h-256v256z"  horiz-adv-x="1024" />

    
    <glyph glyph-name="guangboyuan" unicode="&#59041;" d="M256 448a356.608 356.608 0 0 0 112.64 259.136c11.392 10.048 26.624 16.256 43.392 16.256 35.392 0 64-27.392 64-61.12 0-17.856-8-33.92-20.736-45.056A237.952 237.952 0 0 1 384 447.936a237.44 237.44 0 0 1 75.008-172.8 59.52 59.52 0 0 0 17.024-41.6c0-33.792-28.608-61.12-64-61.12-16.768 0-32.064 6.208-43.52 16.32C299.008 255.04 256 346.688 256 447.936zM0 448C0 610.56 66.496 758.208 174.912 867.712L187.456 880A65.92 65.92 0 0 0 230.656 896c35.328 0 64-27.392 64-61.12a59.392 59.392 0 0 0-16.768-41.216C185.28 705.152 128 583.04 128 448c0-128.32 51.84-245.12 136.576-332.352 3.2-3.328 12.16-12.032 13.312-13.248a59.52 59.52 0 0 0 16.768-41.216c0-33.728-28.672-61.12-64-61.12-16.64 0-31.744 6.016-43.136 15.936C71.68 126.4 0 279.232 0 447.936z m1024 0c0-101.312-43.008-192.96-112.512-259.264a65.472 65.472 0 0 0-43.52-16.32c-35.392 0-64 27.328-64 61.12 0 16 6.4 30.656 17.024 41.6A237.44 237.44 0 0 1 896 447.936a237.952 237.952 0 0 1-71.296 169.28 59.776 59.776 0 0 0-20.736 45.056c0 33.728 28.608 61.12 64 61.12 16.768 0 32-6.208 43.456-16.256A356.608 356.608 0 0 0 1024 447.936z m256 0c0-168.768-71.68-321.6-187.52-432.064a65.472 65.472 0 0 0-43.136-15.936c-35.328 0-64 27.392-64 61.12a59.52 59.52 0 0 0 16.768 41.216c1.152 1.216 10.112 9.92 13.312 13.248C1100.16 202.816 1152 319.616 1152 447.936c0 135.04-57.28 257.28-149.888 345.728a59.392 59.392 0 0 0-16.768 41.216c0 33.728 28.672 61.12 64 61.12 16.64 0 31.808-6.08 43.2-15.936l12.544-12.288C1213.504 758.272 1280 610.496 1280 447.936zM640 320a128 128 0 1 0 0 256 128 128 0 0 0 0-256z m0-128l384-320H256l384 320z"  horiz-adv-x="1280" />

    
    <glyph glyph-name="zhongduanshebei" unicode="&#59042;" d="M73.142857 896h1170.285714a73.142857 73.142857 0 0 0 73.142858-73.142857v-877.714286a73.142857 73.142857 0 0 0-73.142858-73.142857H73.142857a73.142857 73.142857 0 0 0-73.142857 73.142857V822.857143a73.142857 73.142857 0 0 0 73.142857 73.142857z m73.142857-146.285714v-146.285715h146.285715V749.714286H146.285714z m292.571429 0v-146.285715h146.285714V749.714286H438.857143z m292.571428 0v-146.285715h146.285715V749.714286h-146.285715zM158.573714 392.484571L332.068571 237.714286l-173.494857-154.770286a38.326857 38.326857 0 0 1-4.388571-51.492571c12.068571-15.506286 33.645714-17.554286 48.128-4.681143L438.857143 237.714286 202.313143 448.658286a32.621714 32.621714 0 0 1-48.128-4.681143 38.326857 38.326857 0 0 1 4.388571-51.492572zM731.428571 91.428571v-73.142857h438.857143v73.142857h-438.857143zM146.285714 749.714286h146.285715v-146.285715H146.285714zM438.857143 749.714286h146.285714v-146.285715H438.857143zM731.428571 749.714286h146.285715v-146.285715h-146.285715zM731.428571 91.428571h438.857143v-73.142857h-438.857143zM158.573714 392.484571a38.326857 38.326857 0 0 0-4.388571 51.492572 32.621714 32.621714 0 0 0 48.128 4.681143L438.857143 237.714286l-236.544-210.944a32.621714 32.621714 0 0 0-48.128 4.681143 38.326857 38.326857 0 0 0 4.388571 51.492571L332.068571 237.714286 158.573714 392.484571z"  horiz-adv-x="1316" />

    
    <glyph glyph-name="ditu" unicode="&#59043;" d="M0 768.731429l330.605714-247.076572L0 259.072V768.731429z m1080.32-790.089143c-24.649143 36.132571-89.234286 104.082286-193.828571 203.849143L1316.571429 566.637714V-54.857143a73.142857 73.142857 0 0 0-73.142858-73.142857h-102.692571a917.430857 917.430857 0 0 1-60.416 106.642286zM1024 599.990857l65.097143-52.077714-111.616-98.011429-6.290286 4.973715c34.230857 57.709714 51.785143 106.057143 52.736 145.115428zM882.176 525.897143L722.432 653.604571l-22.893714-18.432a109.714286 109.714286 0 1 0 182.710857-109.202285z m-288.402286 24.283428L0 73.142857V259.072l330.605714 262.582857L0 768.731429V822.857143a73.142857 73.142857 0 0 0 73.142857 73.142857h0.950857L449.097143 615.789714 801.938286 896h222.134857l-120.393143-96.768A219.428571 219.428571 0 0 1 585.142857 603.428571c0-16.091429 2.925714-33.792 8.704-53.174857zM774.582857 271.725714c9.654857-11.117714 19.602286-22.454857 29.988572-34.011428 65.536 72.996571 116.297143 137.728 152.502857 194.267428L1316.571429 747.666286v-181.028572L538.989714-128H319.414857l455.168 399.725714zM220.598857-128H73.142857a73.142857 73.142857 0 0 0-73.142857 73.142857v64.146286L518.875429 237.714286c63.780571 31.232 117.394286 46.592 160.987428 46.08 24.649143-0.365714 53.467429-6.802286 86.601143-19.236572l-354.742857-311.442285c-66.998857-24.649143-130.706286-51.638857-191.122286-81.115429z m920.137143 0h-64.146286a304.786286 304.786286 0 0 1-27.062857 43.593143c-19.382857 25.6-55.808 63.414857-109.421714 113.371428L914.285714 18.285714l68.461715-146.285714h-56.246858a258.194286 258.194286 0 0 1-12.214857 27.574857c-21.942857 42.569143-67.876571 104.155429-137.801143 184.612572l110.006858 98.304c104.594286-99.766857 169.179429-167.716571 193.828571-203.849143 18.432-27.062857 38.619429-62.610286 60.416-106.642286zM593.846857 550.253714c21.211429-70.948571 81.481143-163.766857 180.736-278.528l-8.118857-7.168c-33.133714 12.434286-61.952 18.870857-86.601143 19.163429-43.593143 0.585143-97.28-14.774857-160.987428-46.006857L0 9.289143v63.853714l593.846857 477.110857z m105.691429 84.918857l22.893714 18.432 159.817143-127.634285a109.714286 109.714286 0 0 0-182.710857 109.275428z m271.652571-180.297142l6.290286-4.973715-20.406857-17.92c4.973714 7.753143 9.728 15.36 14.116571 22.893715zM1076.662857-128h-93.842286l-68.461714 146.285714 25.819429 10.678857c53.613714-49.956571 90.038857-87.771429 109.348571-113.371428 9.654857-12.653714 18.651429-27.209143 27.136-43.593143z m-150.089143 0H539.062857l237.494857 212.187429c69.924571-80.457143 115.858286-142.043429 137.801143-184.612572 4.681143-9.069714 8.777143-18.285714 12.214857-27.574857z m-607.085714 0H220.598857a2043.538286 2043.538286 0 0 0 191.195429 81.115429L319.414857-128zM74.093714 896h727.844572L449.097143 615.789714 74.093714 896zM1024 599.990857V603.428571a219.428571 219.428571 0 0 1-120.32 195.803429L1024.073143 896H1243.428571a73.142857 73.142857 0 0 0 65.901715-41.398857l7.241143-59.318857v-47.616l-227.474286-199.68-65.097143 51.931428zM804.571429 237.714286C658.285714 400.749714 585.142857 522.605714 585.142857 603.428571a219.428571 219.428571 0 1 0 438.857143 0c0-80.822857-73.142857-202.678857-219.428571-365.714285z m0 256a109.714286 109.714286 0 1 1 0 219.428571 109.714286 109.714286 0 0 1 0-219.428571z"  horiz-adv-x="1316" />

    
    <glyph glyph-name="bianmaqi" unicode="&#59044;" d="M1018.88 340.114286l14.628571 21.942857C993.28 442.148571 957.220571 530.285714 877.714286 530.285714c-48.64 0-81.554286-32.987429-106.349715-77.019428-46.592-10.825143-85.869714-43.446857-123.830857-80.091429A171.593143 171.593143 0 0 1 585.142857 384c-79.725714 0-137.801143-64.877714-209.334857-124.050286 18.285714 15.067429 35.547429 30.500571 52.662857 45.202286a314.88 314.88 0 0 1-94.939428 3.803429C277.650286 395.702857 245.76 530.578286 146.285714 531.163429V91.428571h1024V458.020571c-76.580571-0.438857-113.078857-60.562286-151.405714-117.833142zM73.142857 749.714286h1170.285714v-731.428572H73.142857V749.714286zM1024-54.857143v-73.142857h-146.285714v73.142857H438.857143v-73.142857H292.571429v73.142857H73.142857a73.142857 73.142857 0 0 0-73.142857 73.142857V749.714286a73.142857 73.142857 0 0 0 73.142857 73.142857h512V896h146.285714v-73.142857h512a73.142857 73.142857 0 0 0 73.142858-73.142857v-731.428572a73.142857 73.142857 0 0 0-73.142858-73.142857h-219.428571zM73.142857 749.714286v-731.428572h1170.285714V749.714286H73.142857zM771.364571 453.266286c-22.381714-39.497143-38.180571-87.990857-53.028571-129.170286-20.260571 19.602286-41.837714 37.961143-70.729143 49.005714l-0.073143 0.073143c37.961143 36.644571 77.238857 69.266286 123.830857 80.091429zM333.531429 308.955429C251.757714 299.227429 189.44 251.026286 146.285714 164.571429v-73.142858 439.734858c99.474286-0.585143 131.364571-135.533714 187.245715-222.208zM877.714286 530.285714c-92.379429 0-128-119.149714-159.451429-206.262857 41.691429-40.374857 77.677714-86.308571 159.597714-86.308571 79.433143 0 115.565714 64.950857 155.721143 124.342857C993.28 442.148571 957.147429 530.285714 877.714286 530.285714zM146.285714 164.571429c48.566857 97.499429 121.709714 146.285714 219.428572 146.285714 24.576 0 45.056-2.194286 62.756571-5.705143C355.181714 242.249143 276.333714 164.571429 146.285714 164.571429zM146.285714 91.428571h1024V458.020571C1023.707429 457.142857 1023.926857 237.714286 877.860571 237.714286 731.721143 237.714286 731.721143 384 585.142857 384c-146.578286 0-220.16-219.428571-438.857143-219.428571v-73.142858z"  horiz-adv-x="1316" />

    
    <glyph glyph-name="jiankan-gray" unicode="&#59045;" d="M704 0c237.952 0 454.144 149.504 564.672 384C1158.144 618.496 941.952 768 704 768S249.856 618.496 139.328 384c110.528-234.496 326.72-384 564.672-384z m0 896c314.88 0 585.536-210.56 704-512-118.464-301.44-389.12-512-704-512S118.464 82.55999999999995 0 384c118.464 301.44 389.12 512 704 512z m0-768a256 256 0 1 0 0 512 256 256 0 0 0 0-512z m0 128a128 128 0 1 1 0 256 128 128 0 0 1 0-256z"  horiz-adv-x="1408" />

    
    <glyph glyph-name="tuichuquanping" unicode="&#59046;" d="M972.8 896a51.2 51.2 0 0 0 36.1984-87.3984L737.9968 537.6H972.8a51.2 51.2 0 1 0 0-102.4h-409.6V844.8a51.2 51.2 0 1 0 102.4 0v-234.8032L936.6016 880.9984A51.0464 51.0464 0 0 0 972.8 896zM51.2-128a51.2 51.2 0 0 0-36.1984 87.3984L286.0032 230.4H51.2a51.2 51.2 0 1 0 0 102.4h409.6v-409.6a51.2 51.2 0 1 0-102.4 0v234.8032l-271.0016-271.0016A51.0464 51.0464 0 0 0 51.2-128z"  horiz-adv-x="1024" />

    
    <glyph glyph-name="guanbishishiguiji" unicode="&#59048;" d="M686.212324 332.803968l-102.396672 102.396672H793.626433a230.392512 230.392512 0 0 0 172.896781-382.707562l-72.701638 72.701637A127.99584 127.99584 0 0 1 793.626433 332.803968l-76.797504-0.051198h-30.616605z m-143.560134 0H230.444736a230.392512 230.392512 0 0 0-116.783404 429.042056l76.951099-77.002297A128.047038 128.047038 0 0 1 230.444736 435.20064h209.810781l102.396673-102.396672zM225.478498 793.537794L230.444736 793.588992h495.08791a153.646206 153.646206 0 1 0 0-102.396672H327.87517l-102.396672 102.345474z m657.591428-801.100364A229.675736 229.675736 0 0 0 793.626433-25.584385H298.538523a153.646206 153.646206 0 1 0 0 102.396673h495.08791c1.638347 0 3.276694 0 4.91504 0.102396l84.477255-84.477254zM14.899741 758.159744A50.737551 50.737551 0 1 0 86.679809 829.939811L957.973092-41.353472a50.737551 50.737551 0 0 0-71.780068-71.780067L14.899741 758.159744z"  horiz-adv-x="1024" />

    
    <glyph glyph-name="dianhua" unicode="&#59049;" d="M50.688 896H988.689655a35.310345 35.310345 0 0 0 35.310345-35.310345v-953.37931a35.310345 35.310345 0 0 0-35.310345-35.310345H50.688a35.310345 35.310345 0 0 0-35.239724 33.032828 7437.506207 7437.506207 0 0 0 0 957.934344A35.310345 35.310345 0 0 0 50.688 896z m205.34731-89.494069c11.758345-169.966345 17.619862-304.957793 17.619862-404.850759 0-99.928276-5.879172-246.74869-17.619862-440.32a17.655172 17.655172 0 1 1 35.239724-2.11862c11.793655 194.206897 17.690483 341.627586 17.690483 442.43862 0 100.846345-5.896828 236.57931-17.690483 407.287173a17.655172 17.655172 0 1 1-35.239724-2.436414zM459.034483 790.068966a17.655172 17.655172 0 0 1-17.655173-17.655173v-335.448276a17.655172 17.655172 0 0 1 17.655173-17.655172h441.37931a17.655172 17.655172 0 0 1 17.655173 17.655172V772.4137929999999a17.655172 17.655172 0 0 1-17.655173 17.655173H459.034483z m0-741.517242a17.655172 17.655172 0 0 1-17.655173-17.655172v-35.310345a17.655172 17.655172 0 0 1 17.655173-17.655173h88.275862a17.655172 17.655172 0 0 1 17.655172 17.655173v35.310345a17.655172 17.655172 0 0 1-17.655172 17.655172h-88.275862z m353.103448 0a17.655172 17.655172 0 0 1-17.655172-17.655172v-35.310345a17.655172 17.655172 0 0 1 17.655172-17.655173h88.275862a17.655172 17.655172 0 0 1 17.655173 17.655173v35.310345a17.655172 17.655172 0 0 1-17.655173 17.655172h-88.275862z m-176.551724 0a17.655172 17.655172 0 0 1-17.655173-17.655172v-35.310345a17.655172 17.655172 0 0 1 17.655173-17.655173h88.275862a17.655172 17.655172 0 0 1 17.655172 17.655173v35.310345a17.655172 17.655172 0 0 1-17.655172 17.655172h-88.275862z m-176.551724 123.586207a17.655172 17.655172 0 0 1-17.655173-17.655172v-35.310345a17.655172 17.655172 0 0 1 17.655173-17.655173h88.275862a17.655172 17.655172 0 0 1 17.655172 17.655173v35.310345a17.655172 17.655172 0 0 1-17.655172 17.655172h-88.275862z m353.103448 0a17.655172 17.655172 0 0 1-17.655172-17.655172v-35.310345a17.655172 17.655172 0 0 1 17.655172-17.655173h88.275862a17.655172 17.655172 0 0 1 17.655173 17.655173v35.310345a17.655172 17.655172 0 0 1-17.655173 17.655172h-88.275862z m-176.551724 0a17.655172 17.655172 0 0 1-17.655173-17.655172v-35.310345a17.655172 17.655172 0 0 1 17.655173-17.655173h88.275862a17.655172 17.655172 0 0 1 17.655172 17.655173v35.310345a17.655172 17.655172 0 0 1-17.655172 17.655172h-88.275862z m-176.551724 123.586207a17.655172 17.655172 0 0 1-17.655173-17.655172v-35.310345a17.655172 17.655172 0 0 1 17.655173-17.655173h88.275862a17.655172 17.655172 0 0 1 17.655172 17.655173v35.310345a17.655172 17.655172 0 0 1-17.655172 17.655172h-88.275862z m353.103448 0a17.655172 17.655172 0 0 1-17.655172-17.655172v-35.310345a17.655172 17.655172 0 0 1 17.655172-17.655173h88.275862a17.655172 17.655172 0 0 1 17.655173 17.655173v35.310345a17.655172 17.655172 0 0 1-17.655173 17.655172h-88.275862z m-176.551724 0a17.655172 17.655172 0 0 1-17.655173-17.655172v-35.310345a17.655172 17.655172 0 0 1 17.655173-17.655173h88.275862a17.655172 17.655172 0 0 1 17.655172 17.655173v35.310345a17.655172 17.655172 0 0 1-17.655172 17.655172h-88.275862z"  horiz-adv-x="1024" />

    
    <glyph glyph-name="huihua-copy" unicode="&#59050;" d="M323.527111 48.696889000000056C395.264 7.964443999999958 480.426667-14.222221999999988 568.888889-14.222221999999988c253.895111 0 455.111111 181.134222 455.111111 398.222222s-201.216 398.222222-455.111111 398.222222-455.111111-181.134222-455.111111-398.222222c0-91.306667 35.100444-178.062222 99.783111-248.604444a483.84 483.84 0 0 1 109.966222-86.698667zM82.204444-128l47.445334 186.595556C48.64 147.05777799999998 0 260.43733299999997 0 384c0 282.737778 254.691556 512 568.888889 512s568.888889-229.262222 568.888889-512-254.691556-512-568.888889-512c-110.592 0-213.845333 28.444444-301.169778 77.539556L82.204444-128zM312.888889 298.66666699999996a85.333333 85.333333 0 1 0 0 170.666666 85.333333 85.333333 0 0 0 0-170.666666z m256 0a85.333333 85.333333 0 1 0 0 170.666666 85.333333 85.333333 0 0 0 0-170.666666z m256 0a85.333333 85.333333 0 1 0 0 170.666666 85.333333 85.333333 0 0 0 0-170.666666z"  horiz-adv-x="1137" />

    
    <glyph glyph-name="mapzuhui" unicode="&#59052;" d="M336.9984 25.600000000000023c15.0016-37.1712 35.328-71.5776 60.0576-102.4H51.2a51.2 51.2 0 0 0-51.2 51.2V844.8a51.2 51.2 0 0 0 51.2 51.2h819.2a51.2 51.2 0 0 0 51.2-51.2v-310.784a407.04 407.04 0 0 1-102.4 41.8816V793.6H102.4v-768h234.5984z m108.8512 460.8a411.4944 411.4944 0 0 1-83.8656-102.4H256a51.2 51.2 0 1 0 0 102.4h189.8496z m-125.7472-204.8A410.3168 410.3168 0 0 1 307.2 179.20000000000005H256a51.2 51.2 0 0 0 0 102.4h64.1024zM256 691.2h409.6a51.2 51.2 0 0 0 0-102.4H256a51.2 51.2 0 1 0 0 102.4zM665.6 230.39999999999998v51.2a51.2 51.2 0 0 0 102.4 0v-51.2h51.3536a51.2 51.2 0 1 0 0-102.4H768v-51.2a51.2 51.2 0 0 0-102.4 0v51.2h-51.0464a51.2 51.2 0 0 0 0 102.4H665.6z m51.2-256a204.8 204.8 0 1 1 0 409.6 204.8 204.8 0 0 1 0-409.6z m0-102.4a307.2 307.2 0 1 0 0 614.4 307.2 307.2 0 0 0 0-614.4z"  horiz-adv-x="1024" />

    
    <glyph glyph-name="huihua-copy-copy" unicode="&#59053;" d="M323.527111 48.696889000000056C395.264 7.964443999999958 480.426667-14.222221999999988 568.888889-14.222221999999988c253.895111 0 455.111111 181.134222 455.111111 398.222222s-201.216 398.222222-455.111111 398.222222-455.111111-181.134222-455.111111-398.222222c0-91.306667 35.100444-178.062222 99.783111-248.604444a483.84 483.84 0 0 1 109.966222-86.698667zM82.204444-128l47.445334 186.595556C48.64 147.05777799999998 0 260.43733299999997 0 384c0 282.737778 254.691556 512 568.888889 512s568.888889-229.262222 568.888889-512-254.691556-512-568.888889-512c-110.592 0-213.845333 28.444444-301.169778 77.539556L82.204444-128zM312.888889 298.66666699999996a85.333333 85.333333 0 1 0 0 170.666666 85.333333 85.333333 0 0 0 0-170.666666z m256 0a85.333333 85.333333 0 1 0 0 170.666666 85.333333 85.333333 0 0 0 0-170.666666z m256 0a85.333333 85.333333 0 1 0 0 170.666666 85.333333 85.333333 0 0 0 0-170.666666z"  horiz-adv-x="1137" />

    
    <glyph glyph-name="guanbishishiguiji-copy" unicode="&#59054;" d="M686.212324 332.80396800000005l-102.396672 102.396672H793.626433a230.392512 230.392512 0 0 0 172.896781-382.707562l-72.701638 72.701637A127.99584 127.99584 0 0 1 793.626433 332.80396800000005l-76.797504-0.051198h-30.616605z m-143.560134 0H230.444736a230.392512 230.392512 0 0 0-116.783404 429.042056l76.951099-77.002297A128.047038 128.047038 0 0 1 230.444736 435.20064h209.810781l102.396673-102.396672zM225.478498 793.537794L230.444736 793.588992h495.08791a153.646206 153.646206 0 1 0 0-102.396672H327.87517l-102.396672 102.345474z m657.591428-801.100364A229.675736 229.675736 0 0 0 793.626433-25.584384999999997H298.538523a153.646206 153.646206 0 1 0 0 102.396673h495.08791c1.638347 0 3.276694 0 4.91504 0.102396l84.477255-84.477254zM14.899741 758.159744A50.737551 50.737551 0 1 0 86.679809 829.939811L957.973092-41.35347200000001a50.737551 50.737551 0 0 0-71.780068-71.780067L14.899741 758.159744z"  horiz-adv-x="1024" />

    
    <glyph glyph-name="shishiguiji-copy" unicode="&#59055;" d="M716.77993 332.801434h76.79785a127.996416 127.996416 0 1 0 0-255.992833H298.487642a153.646898 153.646898 0 1 1 0-102.397133h495.090138a230.393549 230.393549 0 0 1 0 460.787098h-563.184231a127.996416 127.996416 0 1 0 0 255.992833h495.090137a153.646898 153.646898 0 1 1 0 102.397133H230.393549a230.393549 230.393549 0 0 1 0-460.787098H716.77993z"  horiz-adv-x="1024" />

    
    <glyph glyph-name="lishiguiji-copy" unicode="&#59056;" d="M336.988964 332.801434H230.393549a230.393549 230.393549 0 0 0 0 460.787098h495.090137a153.646898 153.646898 0 1 0 0-102.397133H230.393549a127.996416 127.996416 0 1 1 0-255.992833h166.651334a409.28134 409.28134 0 0 1-60.055919-102.397132z m24.984901-358.389966H298.487642a153.646898 153.646898 0 1 0 0 102.397133h21.605795c9.369338-36.350982 23.551341-70.70522 41.880428-102.397133zM716.77993-25.588531999999987a204.794266 204.794266 0 1 1 0 409.588532 204.794266 204.794266 0 0 1 0-409.588532z m0-102.397132a307.191399 307.191399 0 1 0 0 614.382797 307.191399 307.191399 0 0 0 0-614.382797z m25.599283 358.389965h76.695453a51.198566 51.198566 0 1 0 0-102.397133H742.379213a51.198566 51.198566 0 1 0 0 102.397133zM665.581364 179.205734v102.397133a51.198566 51.198566 0 1 0 102.397133 0v-102.397133a51.198566 51.198566 0 1 0-102.397133 0z m51.198566 0h51.198567v-51.198566h-51.198567v51.198566z"  horiz-adv-x="1024" />

    
    <glyph glyph-name="guanbi1" unicode="&#59047;" d="M153.6 844.8h716.8a102.4 102.4 0 0 0 102.4-102.4v-716.8a102.4 102.4 0 0 0-102.4-102.4H153.6a102.4 102.4 0 0 0-102.4 102.4V742.4a102.4 102.4 0 0 0 102.4 102.4z m358.4-424.2432L248.9344 683.6224a25.856 25.856 0 1 1-36.5568-36.5568L475.4432 384l-263.0656-263.0656a25.856 25.856 0 0 1 36.5568-36.5568L512 347.4432l263.0656-263.0656a25.856 25.856 0 0 1 36.5568 36.5568L548.5568 384l263.0656 263.0656a25.856 25.856 0 0 1-36.5568 36.5568L512 420.5568zM153.6 844.8a102.4 102.4 0 0 1-102.4-102.4v-716.8a102.4 102.4 0 0 1 102.4-102.4h716.8a102.4 102.4 0 0 1 102.4 102.4V742.4a102.4 102.4 0 0 1-102.4 102.4H153.6z m0 51.2h716.8a153.6 153.6 0 0 0 153.6-153.6v-716.8a153.6 153.6 0 0 0-153.6-153.6H153.6a153.6 153.6 0 0 0-153.6 153.6V742.4a153.6 153.6 0 0 0 153.6 153.6zM512 420.5568l263.0656 263.0656a25.856 25.856 0 0 0 36.5568-36.5568L548.5568 384l263.0656-263.0656a25.856 25.856 0 0 0-36.5568-36.5568L512 347.4432l-263.0656-263.0656a25.856 25.856 0 0 0-36.5568 36.5568L475.4432 384 212.3776 647.0656a25.856 25.856 0 1 0 36.5568 36.5568L512 420.5568z"  horiz-adv-x="1024" />

    
    <glyph glyph-name="gengduo" unicode="&#59051;" d="M153.6 844.8h716.8a102.4 102.4 0 0 0 102.4-102.4v-716.8a102.4 102.4 0 0 0-102.4-102.4H153.6a102.4 102.4 0 0 0-102.4 102.4V742.4a102.4 102.4 0 0 0 102.4 102.4z m102.4-512a51.2 51.2 0 1 1 0 102.4 51.2 51.2 0 0 1 0-102.4z m256 0a51.2 51.2 0 1 1 0 102.4 51.2 51.2 0 0 1 0-102.4z m256 0a51.2 51.2 0 1 1 0 102.4 51.2 51.2 0 0 1 0-102.4zM256 384m-51.2 0a51.2 51.2 0 1 1 102.4 0 51.2 51.2 0 1 1-102.4 0ZM512 384m-51.2 0a51.2 51.2 0 1 1 102.4 0 51.2 51.2 0 1 1-102.4 0ZM768 384m-51.2 0a51.2 51.2 0 1 1 102.4 0 51.2 51.2 0 1 1-102.4 0ZM153.6 844.8a102.4 102.4 0 0 1-102.4-102.4v-716.8a102.4 102.4 0 0 1 102.4-102.4h716.8a102.4 102.4 0 0 1 102.4 102.4V742.4a102.4 102.4 0 0 1-102.4 102.4H153.6z m0 51.2h716.8a153.6 153.6 0 0 0 153.6-153.6v-716.8a153.6 153.6 0 0 0-153.6-153.6H153.6a153.6 153.6 0 0 0-153.6 153.6V742.4a153.6 153.6 0 0 0 153.6 153.6z"  horiz-adv-x="1024" />

    
    <glyph glyph-name="yinliang-jingyin-copy" unicode="&#59057;" d="M506.368 871.7824C567.1936 920.4224 614.4 892.672 614.4 816.128v-869.2736c0-76.4416-47.2576-97.28-101.2736-48.64l-242.944 208.5376h-135.168C60.416 107.16160000000002 0.0512 169.3184 0 245.86239999999998v285.184c0 76.4928 60.7744 139.008 135.0144 139.008h128.3072L506.368 871.7824zM994.4576 384l116.8384-116.8384a51.5072 51.5072 0 0 0-72.8576-72.8576L921.6 311.14239999999995l-116.8384-116.8384a51.5072 51.5072 0 0 0-72.8576 72.8576L848.7424 384l-116.8384 116.8384a51.5072 51.5072 0 1 0 72.8576 72.8576L921.6 456.8576l116.8384 116.8384a51.5072 51.5072 0 1 0 72.8576-72.8576L994.4576 384z"  horiz-adv-x="1126" />

    
    <glyph glyph-name="maikefeng-yayin-copy" unicode="&#59058;" d="M722.840034 247.45060999999998l65.949363-65.949364A371.54112 371.54112 0 0 0 558.501853 61.051739V-34.91691800000001h139.624622a46.541541 46.541541 0 0 0 0-93.083082H325.794149a46.541541 46.541541 0 0 0 0 93.083082h139.624622v95.968657A372.378868 372.378868 0 0 0 139.627985 430.49849V477.040031a46.541541 46.541541 0 1 0 93.083082 0v-46.541541a279.249245 279.249245 0 0 1 490.128967-183.04788z m49.24095 81.26153A278.551122 278.551122 0 0 1 791.209557 430.49849V477.040031a46.541541 46.541541 0 0 0 93.083082 0v-46.541541c0-62.039874-15.172542-120.542591-42.027012-171.970993l-70.184643 70.184643zM735.359708 365.340333L314.438013 786.30857A232.707704 232.707704 0 0 0 744.668016 663.206194v-232.707704c0-22.619189-3.257908-44.493713-9.261766-65.158157z m-45.564168-84.891771A232.707704 232.707704 0 0 0 279.252608 430.49849V663.206194c0 8.935976 0.465415 17.685786 1.489329 26.389054l409.100144-409.100144zM153.125032 724.082529A46.122667 46.122667 0 1 0 218.376273 789.33377L870.795592 136.91445a46.122667 46.122667 0 0 0-65.25124-65.25124L153.125032 724.082529z"  horiz-adv-x="1024" />

    
    <glyph glyph-name="yinliangtiaojie" unicode="&#58880;" d="M1148.343-40.229H936.229C914.286-91.429 863.086-128 804.57-128s-109.714 36.571-131.657 87.771H21.943C7.314-40.229 0-32.914 0-18.286v73.143C0 69.486 7.314 76.8 21.943 76.8h650.971c21.943 51.2 73.143 87.771 131.657 87.771S914.286 128 936.23 76.8h212.114c14.628 0 21.943-7.314 21.943-21.943v-73.143c0-14.628-7.315-21.943-21.943-21.943z m0 365.715H424.229c-21.943-51.2-73.143-87.772-131.658-87.772s-109.714 36.572-131.657 87.772H21.943C7.314 325.486 0 332.8 0 347.429V420.57c0 14.629 7.314 21.943 21.943 21.943h138.971c21.943 51.2 73.143 87.772 131.657 87.772s109.715-36.572 131.658-87.772h724.114c14.628 0 21.943-7.314 21.943-21.943v-73.142c0-14.629-7.315-21.943-21.943-21.943z m0 365.714H863.086c-21.943-51.2-73.143-87.771-131.657-87.771S621.714 640 599.77 691.2H21.943C7.314 691.2 0 698.514 0 713.143v73.143c0 14.628 7.314 21.943 21.943 21.943H599.77C621.714 859.429 672.914 896 731.43 896s109.714-36.571 131.657-87.771h285.257c14.628 0 21.943-7.315 21.943-21.943v-73.143c0-14.629-7.315-21.943-21.943-21.943z"  horiz-adv-x="1170" />

    
    <glyph glyph-name="shifang-copy" unicode="&#59059;" d="M796.507357 390.422726l65.759088 65.657135a196.66555 196.66555 0 0 1-278.176233 278.125257L516.088179 666.203085A51.027013 51.027013 0 1 0 444.059039 738.283201L512.010096 806.285234A298.617623 298.617623 0 1 0 934.295585 383.99974499999996l-68.002034-68.002033a51.077989 51.077989 0 0 0-85.843645 37.212507c0 13.50865 5.250532 25.793875 13.763529 34.867609l2.293922 2.344898zM512.010096-38.28574400000002A298.617623 298.617623 0 1 0 89.724607 383.99974499999996L157.72664 452.001778a50.976037 50.976037 0 0 0 68.81765-75.393558l-64.739567-64.739567a196.66555 196.66555 0 1 1 278.125257-278.074281l68.002033 68.002033a51.128965 51.128965 0 0 0 88.4944-34.561752 50.823109 50.823109 0 0 0-16.46526-37.518364L512.010096-38.28574400000002zM16.777898 809.190868A49.548708 49.548708 0 0 0 86.818973 879.231942L1007.242293-41.140401999999995a49.548708 49.548708 0 1 0-70.041074-70.041074L16.777898 809.139892z"  horiz-adv-x="1028" />

    
    <glyph glyph-name="shifang1" unicode="&#59060;" d="M862.215469 456.079861a196.66555 196.66555 0 0 1-278.125257 278.125257L161.804723 311.919629a196.66555 196.66555 0 1 1 278.125257-278.125257l422.285489 422.285489zM512.010096-38.285744A298.617623 298.617623 0 1 0 89.724607 383.999745L512.010096 806.285234A298.617623 298.617623 0 1 0 934.295585 383.999745L512.010096-38.285744z"  horiz-adv-x="1028" />

    
    <glyph glyph-name="guanbi2" unicode="&#58881;" d="M511.878-127.988c-62.999938 0-124.098879 11.699989-181.697822 34.999966-55.699946 22.499978-105.799897 54.499947-148.798855 95.598906-43.099958 40.99996-76.898925 88.898913-100.598902 142.197862-24.599976 55.299946-36.999964 114.099889-36.999964 174.698829 0 76.798925 20.69998 152.497851 59.899942 219.196786 37.799963 64.099937 92.29991 119.099884 157.497846 158.598845 14.699986 8.999991 33.899967 4.299996 42.899958-10.49999 8.999991-14.699986 4.299996-33.899967-10.49999-42.899958-56.399945-34.199967-103.498899-81.59892-136.198867-137.097866-33.599967-56.999944-51.19895-121.798881-51.19895-187.397817 0-102.4999 41.999959-199.097806 118.298885-271.697735 76.699925-73.098929 178.797825-113.298889 287.496719-113.298889s210.797794 40.299961 287.496719 113.299889c76.299925 72.798929 118.298884 169.197835 118.298885 271.796735 0 130.297873-68.699933 250.796755-183.797821 322.295685-14.599986 9.099991-19.099981 28.299972-9.99999 42.999958 9.099991 14.599986 28.299972 19.099981 42.999958 9.99999 64.098937-39.799961 117.497885-94.599908 154.597849-158.397845 38.399963-66.099935 58.699943-140.999862 58.699943-217.097788 0-60.599941-12.499988-119.399883-36.999964-174.698829-23.699977-53.299948-57.499944-101.198901-100.599902-142.197861-42.998958-40.89996-93.097909-73.099929-148.797855-95.599907-57.799944-23.099977-118.998884-34.798966-181.997822-34.798966z m0 517.594495c-17.199983 0-31.19997 13.899986-31.199969 31.199969V864.80003c0 17.199983 13.899986 31.19997 31.199969 31.19997 17.199983 0 31.19997-13.899986 31.19997-31.19997v-443.894566c0.1-17.199983-13.999986-31.299969-31.19997-31.299969z"  horiz-adv-x="1024" />

    
    <glyph glyph-name="maikefeng-copy" unicode="&#944203;" d="M740.354605 136.518823A370.307743 370.307743 0 0 0 558.317645 60.96860000000004V-34.957853h139.56322a46.521073 46.521073 0 1 0 0-93.042147H325.712279a46.521073 46.521073 0 1 0 0 93.042147h139.563219v95.926453A372.215107 372.215107 0 0 0 139.627985 430.252879V476.773953a46.521073 46.521073 0 1 0 93.042147 0v-46.521074a279.12644 279.12644 0 0 1 441.205859-227.301964l-33.495173 33.495173A232.605366 232.605366 0 0 0 279.191205 430.252879l0.046521 167.336301-126.072108 126.072108A46.102384 46.102384 0 0 0 218.341641 788.930354L870.474047 136.79794900000002a46.102384 46.102384 0 0 0-65.222545-65.222545l-64.896897 64.943419z m31.448245 191.992469A278.428624 278.428624 0 0 1 790.923011 430.252879V476.773953a46.521073 46.521073 0 1 0 93.042147 0v-46.521074c0-62.012591-15.16587-120.48958-42.008529-171.895365l-70.153779 70.153778zM735.097723 365.123377L314.361137 785.906484A232.605366 232.605366 0 0 0 744.401938 662.858246v-232.605367c0-22.609242-3.256475-44.474146-9.257694-65.129502z"  horiz-adv-x="1024" />

    
    <glyph glyph-name="yinliang-copy" unicode="&#944204;" d="M506.368 871.7824C567.1936 920.4224 614.4 892.672 614.4 816.128v-869.2736c0-76.4416-47.2576-97.28-101.2736-48.64l-242.944 208.5376h-135.168C60.416 107.16160000000002 0.0512 169.3184 0 245.86239999999998v285.184c0 76.4928 60.7744 139.008 135.0144 139.008h128.3072L506.368 871.7824z m213.0944-803.9936a51.2 51.2 0 0 0-31.7952 91.3408c3.072 2.4576 5.1712 4.096 7.1168 5.2224A255.8464 255.8464 0 0 1 819.2 384c0 88.9856-45.4144 167.424-114.3296 213.2992-3.4816 2.304-11.776 8.1408-12.1344 8.3968a51.2 51.2 0 1 0 56.8832 84.992l10.24-7.0144A358.0928 358.0928 0 0 0 921.6 384a358.1952 358.1952 0 0 0-170.4448-305.2032 51.1488 51.1488 0 0 0-31.744-11.008z m148.224-29.6448A459.6736 459.6736 0 0 1 1024 384a459.52 459.52 0 0 1-145.6128 336.128l-9.3696 8.96a51.1488 51.1488 0 0 0 56.8832 85.1456c1.2288-0.768 11.264-9.216 15.104-12.6976A561.152 561.152 0 0 0 1126.4 384a561.664 561.664 0 0 0-180.0192-412.7744c-3.6864-3.3792-14.336-13.2608-16.0768-14.6944a51.2 51.2 0 0 0-67.584 76.8c0.0512 0.4096 3.4816 3.4816 4.9664 4.8128z"  horiz-adv-x="1126" />

    
    <glyph glyph-name="quxiaoxiaohui-text" unicode="&#58977;" d="M243.665455 52.130908999999974c-6.981818-1.861818-13.963636-3.490909-21.178182-5.12V176.87272700000005h17.92v-13.032727h9.309091c3.258182-39.098182 13.498182-75.170909 30.72-108.218182-12.567273-20.945455-28.16-38.632727-47.010909-53.527273l11.403636-13.032727c17.454545 13.730909 32.349091 30.487273 44.916364 50.036364 10.705455-17.454545 23.738182-34.210909 39.330909-50.269091l11.170909 12.8c-16.523636 16.058182-30.487273 33.745455-41.658182 52.829091 16.058182 30.487273 26.763636 67.258182 31.883636 110.312727v15.36h-90.065454v12.567273H129.629091v-15.825455h18.385454v-144.058182l-20.945454-3.025454 3.956364-16.290909c26.065455 3.723636 50.967273 8.145455 75.170909 13.265454V-11.636363999999958h16.290909v42.123637c6.981818 1.629091 13.963636 3.258182 21.178182 5.12v16.523636z m21.410909 111.709091h49.570909c-4.189091-34.676364-12.8-65.163636-25.367273-91.694545-13.265455 27.694545-21.410909 58.181818-24.203636 91.694545z m-58.88-120.552727c-13.730909-2.792727-27.694545-5.585455-41.890909-7.912728v39.563637h41.890909v-31.650909z m-41.890909 46.778182v35.374545h41.890909v-35.374545h-41.890909z m0 50.734545V176.87272700000005h41.890909v-36.072727h-41.890909z m323.490909 60.276364v-63.534546h-49.803637v-148.014545h16.756364v49.803636h84.014545v-22.807273c0-7.214545-3.723636-10.938182-10.938181-10.938181l-26.065455 0.465454 4.421818-16.290909h27.229091c14.429091 0 21.876364 7.68 21.876364 23.04v124.741818H505.018182v63.534546h-17.221818z m-33.047273-120.785455h84.014545v-26.530909h-84.014545v26.530909z m84.014545 14.429091h-84.014545v26.763636h84.014545v-26.763636z m-97.28 100.305455l-13.963636-6.749091c9.309091-11.636364 17.92-24.901818 25.832727-39.563637l13.498182 6.516364c-8.145455 14.429091-16.523636 27.694545-25.367273 39.796364z m110.08 1.163636c-6.516364-13.963636-15.592727-28.16-26.763636-42.589091l13.265455-6.749091c11.170909 13.730909 20.247273 27.927273 27.22909 42.821818l-13.730909 6.516364z m-148.247272-115.2a729.367273 729.367273 0 0 0-38.865455-83.316364l15.36-6.749091c13.963636 26.298182 26.530909 54.458182 38.167273 84.247273l-14.661818 5.818182z m-22.807273 117.294545l-11.869091-11.403636c17.221818-12.567273 30.72-24.203636 40.494545-35.374545l11.869091 11.86909c-10.938182 11.636364-24.436364 23.272727-40.494545 34.909091z m-6.749091-54.690909l-11.869091-11.403636c16.290909-12.567273 28.858182-24.436364 38.167273-35.374546l11.869091 11.869091c-10.24 11.636364-22.807273 23.272727-38.167273 34.909091z m313.250909-152.669091c15.825455 0 23.970909 8.378182 23.970909 24.669091v182.690909h-17.221818v-178.269091c0-8.610909-4.421818-13.032727-13.032727-13.032727-10.472727 0-21.643636 0.465455-33.28 1.396364l3.956363-17.454546h35.607273z m-55.621818 153.367273c-9.309091-41.890909-23.04-75.170909-41.658182-99.84l14.429091-12.8c18.152727 24.203636 32.814545 59.578182 43.985455 106.123636l-16.756364 6.516364z m132.189091 5.585455l-15.127273-9.541819c17.92-40.261818 32.116364-76.8 42.589091-109.847272l14.894545 10.472727c-9.774545 30.952727-23.970909 67.258182-42.356363 108.916364z m161.28 51.898181c-27.461818-31.418182-61.672727-57.483636-102.632727-78.42909l8.843636-16.058182c41.425455 22.341818 74.705455 48.872727 99.84 79.592727 27.461818-32.581818 60.276364-59.112727 98.909091-79.36l9.076363 16.058182c-38.4 19.083636-72.378182 45.149091-101.934545 78.196363h-12.101818z m-50.734546-71.447272v-15.825455h114.269091v15.825455h-114.269091z m-36.538181-46.778182h187.112727v-16.290909h-109.614546c-11.170909-21.876364-24.669091-40.96-40.494545-57.483637 37.934545 2.327273 74.007273 5.585455 108.450909 10.24-7.912727 10.24-16.523636 20.945455-26.065455 31.65091l13.032728 8.378181c21.178182-23.738182 37.469091-44.218182 48.872727-61.672727l-13.963636-9.774545c-3.956364 6.283636-8.145455 12.567273-12.8 19.083636-36.305455-5.818182-82.152727-10.472727-137.774546-13.730909l-4.654545 14.661818c4.189091 1.163636 6.981818 2.56 8.843636 4.421818 14.894545 17.221818 27.461818 35.141818 37.469091 54.225455h-58.414545v16.290909zM551.493818 779.636364c57.297455 0 103.749818-46.894545 103.749818-104.727273a105.192727 105.192727 0 0 0-8.773818-42.216727 186.507636 186.507636 0 0 1-113.501091-92.951273c-17.058909-1.582545-32.814545-5.422545-43.729454-11.450182-12.939636-7.144727-31.953455-44.311273-57.018182-111.499636a10.496 10.496 0 0 1 9.704727-14.173091h77.195637c4.235636-14.801455 10.24-28.858182 17.803636-41.914182L441.925818 360.72727299999997a51.432727 51.432727 0 0 0-18.292363 3.351272 52.503273 52.503273 0 0 0-30.254546 67.49091c29.649455 79.476364 49.943273 119.109818 75.962182 133.46909 11.357091 6.283636 25.460364 10.868364 40.866909 13.754182a104.773818 104.773818 0 0 0-62.487273 96.116364c0 57.832727 46.452364 104.727273 103.773091 104.727273zM443.578182 737.652364a125.649455 125.649455 0 0 1-15.592727-46.848c-12.962909-7.074909-21.76-20.945455-21.76-36.840728 0-21.690182 16.360727-39.563636 37.282909-41.658181 5.585455-9.774545 12.404364-18.711273 20.247272-26.577455a113.477818 113.477818 0 0 1-4.375272-2.304c-13.405091-7.400727-24.832-18.688-35.886546-35.374545-12.381091-1.536-23.691636-4.561455-31.767273-9.029819-8.773818-4.817455-20.875636-26.251636-36.305454-64.256l-12.753455-33.466181a20.712727 20.712727 0 0 0-26.810181-12.055273 21.015273 21.015273 0 0 0-11.93891 27.066182l3.49091 9.146181h-0.232728c2.490182 6.632727 6.376727 16.616727 11.682909 29.928728 18.618182 45.521455 33.442909 69.632 52.945455 80.407272a112.872727 112.872727 0 0 0 27.322182 10.24 83.921455 83.921455 0 0 0-34.397091 67.933091c0 44.869818 34.932364 81.501091 78.848 83.688728z m107.915636 0.093091c-34.397091 0-62.254545-28.136727-62.254545-62.836364s27.857455-62.836364 62.254545-62.836364c34.373818 0 62.231273 28.136727 62.231273 62.836364s-27.857455 62.836364-62.231273 62.836364z m107.892364-0.093091c43.915636-2.187636 78.848-38.818909 78.848-83.688728 0-6.144-0.651636-12.125091-1.885091-17.896727A185.972364 185.972364 0 0 1 698.181818 640l-3.816727-0.069818a42.170182 42.170182 0 0 1-19.362909 50.874182 125.649455 125.649455 0 0 1-15.592727 46.848zM698.181818 593.454545a139.636364 139.636364 0 1 0 0-279.272727 139.636364 139.636364 0 0 0 0 279.272727z m0-46.545454a93.090909 93.090909 0 1 1 0-186.181818 93.090909 93.090909 0 0 1 0 186.181818z m34.909091-69.818182a23.272727 23.272727 0 1 0 0-46.545454h-69.818182a23.272727 23.272727 0 1 0 0 46.545454h69.818182z"  horiz-adv-x="1163" />

    
    <glyph glyph-name="jiankan-text" unicode="&#58978;" d="M581.818182 756.363636c114.501818 0 212.922182-76.567273 256-186.181818-43.077818-109.614545-141.498182-186.181818-256-186.181818s-212.922182 76.567273-256 186.181818c43.077818 109.614545 141.498182 186.181818 256 186.181818z m0-46.545454c-86.528 0-165.143273-54.365091-205.335273-139.636364 40.192-85.271273 118.807273-139.636364 205.335273-139.636363s165.143273 54.365091 205.335273 139.636363C746.961455 655.453091 668.346182 709.818182 581.818182 709.818182z m0-46.545455a93.090909 93.090909 0 1 0 0-186.181818 93.090909 93.090909 0 0 0 0 186.181818z m0-46.545454a46.545455 46.545455 0 1 1 0-93.090909 46.545455 46.545455 0 0 1 0 93.090909zM489.658182 157.78909099999998h74.938182v16.290909h-69.352728c2.327273 8.378182 4.421818 16.989091 6.283637 26.298182l-17.221818 3.258182c-5.818182-33.512727-16.989091-60.043636-33.512728-79.825455l10.705455-13.032727c11.403636 12.567273 20.712727 28.392727 28.16 47.010909z m24.436363-15.825455l-13.498181-8.378181c11.869091-15.592727 21.178182-29.789091 28.16-42.589091l13.963636 9.541818c-6.516364 11.869091-16.058182 25.6-28.625455 41.425454z m-90.065454 60.509091v-114.967272h16.989091V202.47272699999996h-16.989091z m-48.174546-11.403636v-94.952727h16.523637v94.952727h-16.523637z m169.658182-115.2h-159.650909v-64.698182h-26.065454v-15.127273h210.618181v15.127273h-24.901818v64.698182z m-143.592727-64.698182V60.50909100000001h30.952727v-49.338182h-30.952727z m47.010909 0V60.50909100000001h32.581818v-49.338182h-32.581818z m48.64 0V60.50909100000001h31.883636v-49.338182h-31.883636z m112.64 147.781818v-14.429091h66.094546c-3.025455-5.12-6.516364-10.472727-10.24-15.825454h-68.421819v-14.894546h56.785455c-16.523636-19.549091-37.469091-37.701818-62.836364-54.923636l9.076364-14.429091c14.429091 9.774545 27.461818 20.247273 39.330909 30.952727v-87.272727h16.058182v10.007273h105.192727v-10.007273h16.058182V97.74545499999999h-115.432727c4.421818 5.12 8.610909 10.472727 12.8 16.058181h125.905454v14.894546h-115.665454c3.025455 5.12 6.050909 10.24 8.843636 15.825454h93.323636v14.429091H700.509091c2.327273 5.818182 4.654545 11.869091 6.749091 18.152728 29.323636 2.327273 54.923636 5.818182 77.032727 10.705454l-7.68 13.265455c-43.52-8.843636-98.210909-13.265455-164.305454-13.265455l4.887272-13.963636c26.530909 0 51.2 0.698182 74.007273 2.094545-2.327273-5.585455-4.654545-11.403636-7.214545-16.989091h-73.774546z m45.847273-103.563636h105.192727v-14.661818h-105.192727v14.661818z m105.192727 13.032727h-105.192727v15.592727h105.192727v-15.592727z m-105.192727-40.727273h105.192727v-15.825454h-105.192727v15.825454z"  horiz-adv-x="1163" />

    
    <glyph glyph-name="huihua-text" unicode="&#58979;" d="M581.818182 779.636364c128.535273 0 232.727273-93.789091 232.727273-209.454546s-104.192-209.454545-232.727273-209.454545c-45.242182 0-87.482182 11.636364-123.205818 31.720727L382.72 360.72727299999997l19.409455 76.334545C368.989091 473.250909 349.090909 519.633455 349.090909 570.181818c0 115.665455 104.192 209.454545 232.727273 209.454546z m0-46.545455c-103.866182 0-186.181818-74.100364-186.181818-162.909091 0-37.352727 14.359273-72.843636 40.820363-101.701818a197.934545 197.934545 0 0 1 44.986182-35.467636C510.789818 416.349091 545.629091 407.272727 581.818182 407.272727c103.866182 0 186.181818 74.100364 186.181818 162.909091s-82.315636 162.909091-186.181818 162.909091z m-104.727273-128a34.909091 34.909091 0 1 0 0-69.818182 34.909091 34.909091 0 0 0 0 69.818182z m104.727273 0a34.909091 34.909091 0 1 0 0-69.818182 34.909091 34.909091 0 0 0 0 69.818182z m104.727273 0a34.909091 34.909091 0 1 0 0-69.818182 34.909091 34.909091 0 0 0 0 69.818182zM459.403636 201.774545c-27.461818-31.418182-61.672727-57.483636-102.632727-78.42909l8.843636-16.058182c41.425455 22.341818 74.705455 48.872727 99.84 79.592727 27.461818-32.581818 60.276364-59.112727 98.909091-79.36l9.076364 16.058182c-38.4 19.083636-72.378182 45.149091-101.934545 78.196363h-12.101819z m-50.734545-71.447272v-15.825455h114.269091v15.825455h-114.269091z m-36.538182-46.778182v-16.290909h58.414546c-10.007273-19.083636-22.574545-37.003636-37.469091-54.225455-1.861818-1.861818-4.654545-3.258182-8.843637-4.421818l4.654546-14.661818 24.971636 1.605818c44.520727 3.118545 82.082909 7.214545 112.802909 12.125091 4.654545-6.516364 8.843636-12.8 12.8-19.083636l13.963637 9.774545c-11.403636 17.454545-27.694545 37.934545-48.872728 61.672727l-13.032727-8.378181c9.541818-10.705455 18.152727-21.410909 26.065455-31.65091-34.443636-4.654545-70.516364-7.912727-108.45091-10.24 15.825455 16.523636 29.323636 35.607273 40.494546 57.483637h109.614545v16.290909h-187.112727z m293.469091 50.269091v-16.290909h63.767273v-37.469091h-43.52v-90.996364h16.523636v11.636364h71.447273v-11.636364h16.756363v90.996364h-44.218181v37.469091h60.043636v16.290909h-60.043636v38.865454c19.549091 2.792727 37.003636 6.981818 51.898181 12.334546l-8.145454 14.196363c-31.650909-10.705455-71.68-16.058182-119.854546-16.058181l4.887273-15.127273c19.316364 0 37.469091 0.930909 54.225455 2.56v-36.770909H665.6z m36.770909-117.294546v48.407273h71.447273v-48.407273h-71.447273z m-82.850909 182.923637l-11.636364-11.403637c16.756364-12.567273 30.254545-24.669091 40.029091-36.072727l11.403637 11.636364c-10.705455 12.101818-23.970909 23.970909-39.796364 35.84z m-27.927273-68.887273h50.269091v-103.796364c7.912727 6.516364 16.756364 14.429091 26.065455 23.505455l4.421818-17.687273c-13.963636-13.498182-29.090909-25.367273-45.149091-35.84l-6.516364 14.894546c3.258182 3.025455 5.12 6.283636 5.12 9.774545v93.090909h-34.210909v16.058182z"  horiz-adv-x="1163" />

    
    <glyph glyph-name="quxiaojieshouduan-text" unicode="&#58980;" d="M127.301818 52.130908999999974c-6.981818-1.861818-13.963636-3.490909-21.178182-5.12V176.87272700000005h17.92v-13.032727h9.309091c3.258182-39.098182 13.498182-75.170909 30.72-108.218182-12.567273-20.945455-28.16-38.632727-47.010909-53.527273l11.403637-13.032727c17.454545 13.730909 32.349091 30.487273 44.916363 50.036364 10.705455-17.454545 23.738182-34.210909 39.330909-50.269091l11.170909 12.8c-16.523636 16.058182-30.487273 33.745455-41.658181 52.829091 16.058182 30.487273 26.763636 67.258182 31.883636 110.312727v15.36H124.043636v12.567273H13.265455v-15.825455h18.385454v-144.058182l-20.945454-3.025454 3.956363-16.290909c26.065455 3.723636 50.967273 8.145455 75.170909 13.265454V-11.636363999999958h16.290909v42.123637c6.981818 1.629091 13.963636 3.258182 21.178182 5.12v16.523636z m21.410909 111.709091h49.570909c-4.189091-34.676364-12.8-65.163636-25.367272-91.694545-13.265455 27.694545-21.410909 58.181818-24.203637 91.694545z m-58.88-120.552727c-13.730909-2.792727-27.694545-5.585455-41.890909-7.912728v39.563637h41.890909v-31.650909z m-41.890909 46.778182v35.374545h41.890909v-35.374545h-41.890909z m0 50.734545V176.87272700000005h41.890909v-36.072727h-41.890909z m323.490909 60.276364v-63.534546h-49.803636v-148.014545h16.756364v49.803636h84.014545v-22.807273c0-7.214545-3.723636-10.938182-10.938182-10.938181l-26.065454 0.465454 4.421818-16.290909h27.229091c14.429091 0 21.876364 7.68 21.876363 23.04v124.741818H388.654545v63.534546h-17.221818z m-33.047272-120.785455h84.014545v-26.530909h-84.014545v26.530909z m84.014545 14.429091h-84.014545v26.763636h84.014545v-26.763636z m-97.28 100.305455l-13.963636-6.749091c9.309091-11.636364 17.92-24.901818 25.832727-39.563637l13.498182 6.516364c-8.145455 14.429091-16.523636 27.694545-25.367273 39.796364z m110.08 1.163636c-6.516364-13.963636-15.592727-28.16-26.763636-42.589091l13.265454-6.749091c11.170909 13.730909 20.247273 27.927273 27.229091 42.821818l-13.730909 6.516364z m-148.247273-115.2a729.367273 729.367273 0 0 0-38.865454-83.316364l15.36-6.749091c13.963636 26.298182 26.530909 54.458182 38.167272 84.247273l-14.661818 5.818182z m-22.807272 117.294545l-11.869091-11.403636c17.221818-12.567273 30.72-24.203636 40.494545-35.374545l11.869091 11.86909c-10.938182 11.636364-24.436364 23.272727-40.494545 34.909091z m-6.749091-54.690909l-11.869091-11.403636c16.290909-12.567273 28.858182-24.436364 38.167272-35.374546l11.869091 11.869091c-10.24 11.636364-22.807273 23.272727-38.167272 34.909091z m331.170909 18.850909l-13.730909-6.516363c4.887273-8.378182 9.541818-17.687273 14.196363-27.927273h-35.607272v-16.058182h129.861818V128h-37.701818c5.352727 9.309091 10.24 19.781818 14.661818 31.418182l-15.825455 5.585454c-4.654545-13.032727-10.007273-25.367273-16.523636-37.003636H605.090909c-5.12 12.567273-10.472727 23.970909-16.523636 34.443636z m30.72 40.727273l-17.454546-2.792727c2.792727-5.818182 5.585455-12.334545 8.145455-19.316364h-51.2v-15.36h120.32v15.36h-52.130909l-3.84 11.659637c-1.28 3.700364-2.56 7.191273-3.84 10.449454z m-116.130909-212.712727c13.730909 0 20.712727 6.749091 20.712727 20.247273v68.887272c6.516364 3.025455 13.032727 6.283636 19.549091 9.774546v16.989091c-6.516364-3.490909-13.032727-6.749091-19.549091-10.007273v44.683636h19.316364v16.058182h-19.316364v43.985455h-17.221818v-43.985455h-28.392728v-16.058182h28.392728v-51.898182c-10.705455-4.189091-21.643636-7.68-32.581818-10.472727l4.18909-16.756363c9.541818 3.025455 19.083636 6.516364 28.392728 10.24v-57.25091c0-6.050909-3.258182-9.076364-9.309091-9.076363-5.585455 0-11.636364 0.465455-17.92 0.930909l3.490909-16.290909h20.247273z m95.650909 114.967273c-2.56-6.516364-5.352727-13.032727-8.610909-20.014546h-39.796364v-16.290909h31.185455c-4.887273-8.843636-10.472727-17.92-16.756364-27.461818a1000.727273 1000.727273 0 0 0 45.614545-19.316364c-14.429091-8.378182-35.374545-14.894545-62.370909-19.781818l6.516364-15.127273c33.512727 6.516364 57.949091 15.592727 73.309091 26.763637 18.618182-8.843636 34.676364-17.454545 48.64-26.065455l9.076363 13.498182c-14.661818 8.378182-30.021818 16.290909-45.847272 23.738182 10.938182 11.869091 18.152727 26.530909 21.643636 43.752727h25.6v16.290909h-79.825454c2.792727 5.818182 5.352727 11.869091 7.68 18.152727l-16.058182 1.861819z m46.778182-36.305455c-3.723636-14.894545-10.705455-26.996364-21.178182-36.770909-12.567273 5.585455-25.6 10.938182-39.098182 16.058182 4.654545 6.516364 9.076364 13.498182 13.265454 20.712727h47.01091z m73.541818-34.676364a628.363636 628.363636 0 0 1 51.2 15.592728v-60.276364h16.523636v210.850909h-16.523636v-134.283636c-11.636364-4.421818-23.272727-8.378182-34.909091-11.636364v127.069091h-16.290909v-127.534545c0-2.327273-1.861818-4.189091-5.12-5.585455l5.12-14.196364z m115.2 115.432728h46.778182c-1.396364-32.116364-8.843636-60.043636-22.807273-83.781819-13.498182 19.083636-24.203636 40.029091-32.581818 62.836364 3.025455 6.516364 5.818182 13.498182 8.610909 20.945455z m-18.385455-39.098182c8.378182-21.410909 19.316364-41.192727 32.349091-59.810909-14.429091-19.083636-33.978182-34.676364-58.414545-46.778182l9.541818-15.127273c24.203636 13.032727 43.985455 29.090909 59.345454 48.407273 14.661818-18.152727 32.116364-34.909091 52.363637-50.036364l11.403636 13.498182c-20.48 14.894545-38.167273 31.883636-53.527273 50.967273 17.221818 26.996364 26.530909 59.810909 28.16 97.978182h20.014546v16.523636h-77.730909c2.792727 10.24 5.352727 21.410909 7.68 33.28l-16.756364 2.792727c-6.749091-40.96-19.781818-73.774545-38.865454-97.978182l10.472727-12.8c4.887273 5.818182 9.541818 12.101818 13.963636 19.083637z m124.974546 52.130909v-15.825455h73.541818v15.825455h-27.229091c-3.258182 13.498182-6.516364 25.6-9.774546 36.072727l-16.756363-2.792727c3.956364-10.007273 7.447273-21.178182 10.705454-33.28h-30.487272z m19.083636-29.556364l-13.730909-4.421818c5.352727-29.090909 9.774545-59.345455 13.265454-90.763636l13.73091 3.490909c-3.956364 34.443636-8.378182 65.163636-13.265455 91.694545z m54.225455-93.789091c-6.050909-2.327273-12.567273-4.421818-19.083637-6.749091 5.585455 31.185455 10.007273 64.930909 12.8 101.469091l-15.127273 2.094546c-2.56-38.167273-6.516364-74.007273-12.101818-107.985455-13.032727-3.723636-26.530909-6.749091-40.261818-9.076363l4.189091-16.523637c24.901818 5.585455 48.174545 12.334545 69.585455 20.712728v16.058181z m110.545454 117.061819h-31.650909v44.683636h-16.290909v-44.683636h-30.952727v35.607272h-16.058182v-50.269091h110.778182v50.269091h-15.825455v-35.607272z m-104.96-34.21091h132.421818v-15.36h-61.207272c-1.629091-7.68-3.956364-15.127273-6.749091-22.341818h61.207272v-77.963636c0-11.636364-4.887273-17.454545-14.661818-17.454546h-10.705454l-3.956364 15.127273 9.541818-0.698182c3.025455 0 4.654545 2.094545 4.654546 6.283637V69.81818199999998h-20.945455v-76.8h-14.196364v76.8h-18.850909v-77.032727h-14.196363V69.81818199999998h-20.48v-80.523637h-15.127273v95.418182h41.425455c2.792727 7.214545 5.12 14.661818 6.516363 22.341818h-54.690909v15.36zM636.881455 610.327273a23.272727 23.272727 0 0 0 23.272727-23.272728V546.909091h9.029818a186.042182 186.042182 0 0 1-27.275636-46.545455H418.909091v-116.363636h215.319273c4.258909-16.523636 10.705455-32.162909 19.060363-46.568727L418.909091 337.45454500000005a46.545455 46.545455 0 0 0-46.545455 46.545455v116.363636a46.545455 46.545455 0 0 0 46.545455 46.545455h194.699636v40.145454a23.272727 23.272727 0 0 0 23.272728 23.272728zM500.363636 477.090909a34.909091 34.909091 0 1 0 0-69.818182 34.909091 34.909091 0 0 0 0 69.818182z m223.115637 188.788364a20.573091 20.573091 0 0 0 1.233454-26.461091l-1.815272-2.141091-2.839273-2.420364a20.619636 20.619636 0 0 0-24.994909 0.116364l-2.048 1.792-1.047273 1.047273a79.476364 79.476364 0 0 1-112.407273-1.070546 20.619636 20.619636 0 0 0-26.763636-1.792l-2.117818 1.815273-0.907637 0.907636a20.596364 20.596364 0 0 0-1.675636 26.181818l1.698909 2.094546 2.792727 2.769454a120.855273 120.855273 0 0 0 170.891637-2.839272z m55.621818 54.365091c7.191273-7.354182 7.796364-18.757818 2.164364-26.298182l-1.69891-1.978182-1.698909-2.304a20.642909 20.642909 0 0 0-28.578909 0.139636 157.626182 157.626182 0 0 1-105.611636 47.872l-7.051636 0.186182-7.028364-0.186182a157.789091 157.789091 0 0 1-105.472-47.36 20.619636 20.619636 0 0 0-26.414546-1.675636l-2.094545 1.745455-1.000727 1.000727a20.619636 20.619636 0 0 0-1.792 26.763636l1.815272 2.094546 6.4 6.190545a199.982545 199.982545 0 0 0 278.039273-6.190545zM814.545455 570.181818a139.636364 139.636364 0 1 0 0-279.272727 139.636364 139.636364 0 0 0 0 279.272727z m0-46.545454a93.090909 93.090909 0 1 1 0-186.181819 93.090909 93.090909 0 0 1 0 186.181819z m34.90909-69.818182a23.272727 23.272727 0 1 0 0-46.545455h-69.818181a23.272727 23.272727 0 1 0 0 46.545455h69.818181z"  horiz-adv-x="1163" />

    
    <glyph glyph-name="zuhui-text" unicode="&#58981;" d="M744.727273 802.909091a23.272727 23.272727 0 0 0 23.272727-23.272727l0.023273-141.265455a185.018182 185.018182 0 0 1-46.545455 19.037091L721.454545 756.363636H395.636364v-349.090909l106.635636-0.023272a186.042182 186.042182 0 0 1 27.298909-46.545455L372.363636 360.72727299999997a23.272727 23.272727 0 0 0-23.272727 23.272727V779.636364a23.272727 23.272727 0 0 0 23.272727 23.272727h372.363637zM488.727273 477.090909h-23.272728a23.272727 23.272727 0 0 0 0 46.545455h29.137455A186.530909 186.530909 0 0 1 488.727273 477.090909z m24.901818 93.090909H465.454545a23.272727 23.272727 0 1 0 0 46.545455h86.318546a187.042909 187.042909 0 0 1-38.144-46.545455zM651.636364 709.818182a23.272727 23.272727 0 0 0 0-46.545455h-186.181819a23.272727 23.272727 0 1 0 0 46.545455h186.181819zM674.909091 616.727273a139.636364 139.636364 0 1 0 0-279.272728 139.636364 139.636364 0 0 0 0 279.272728z m0-46.545455a93.090909 93.090909 0 1 1 0-186.181818 93.090909 93.090909 0 0 1 0 186.181818z m0-23.272727a23.272727 23.272727 0 0 0 23.272727-23.272727v-23.272728h23.342546a23.272727 23.272727 0 1 0 0-46.545454H698.181818v-23.272727a23.272727 23.272727 0 0 0-46.545454 0v23.272727h-23.202909a23.272727 23.272727 0 0 0 0 46.545454H651.636364v23.272728a23.272727 23.272727 0 0 0 23.272727 23.272727zM440.785455 40.494545000000016c-21.876364-10.007273-47.709091-17.92-77.498182-23.970909l2.094545-16.523636c28.392727 6.050909 53.527273 14.429091 75.403637 24.669091v15.825454z m-36.538182 161.047273c-10.24-26.530909-22.109091-49.803636-35.84-70.283636-2.327273-3.258182-4.654545-5.352727-7.214546-6.283637l4.189091-15.592727 27.461818 3.793455c4.491636 0.651636 9.006545 1.326545 13.498182 2.024727-13.265455-21.643636-24.436364-37.003636-33.745454-46.08-2.094545-1.861818-4.654545-3.490909-7.68-4.887273l4.421818-15.592727c23.272727 3.258182 47.476364 9.541818 72.843636 18.618182v15.36c-17.221818-6.516364-34.443636-11.636364-51.665454-15.36 14.661818 16.989091 33.047273 45.381818 55.389091 85.410909l-15.127273 5.818182-7.842909-14.475637c-2.56-4.654545-5.073455-9.146182-7.517091-13.451636-11.170909-1.861818-22.109091-3.490909-33.28-4.421818 12.8 17.221818 25.367273 40.261818 37.934545 69.12l-15.825454 6.283636z m147.316363-10.705454h-94.487272v-178.036364h-20.247273v-16.290909h134.516364v16.290909h-19.781819V190.836364z m-77.963636-178.036364v44.218182h61.44v-44.218182h-61.44z m0 60.043636v43.985455h61.44v-43.985455h-61.44z m0 59.810909v42.123637h61.44v-42.123637h-61.44z m218.530909 69.12c-27.461818-31.418182-61.672727-57.483636-102.632727-78.42909l8.843636-16.058182c41.425455 22.341818 74.705455 48.872727 99.84 79.592727 27.461818-32.581818 60.276364-59.112727 98.909091-79.36l9.076364 16.058182c-38.4 19.083636-72.378182 45.149091-101.934546 78.196363h-12.101818z m-50.734545-71.447272v-15.825455h114.269091v15.825455h-114.269091z m-36.538182-46.778182h187.112727v-16.290909h-109.614545c-11.170909-21.876364-24.669091-40.96-40.494546-57.483637 37.934545 2.327273 74.007273 5.585455 108.450909 10.24-7.912727 10.24-16.523636 20.945455-26.065454 31.65091l13.032727 8.378181c21.178182-23.738182 37.469091-44.218182 48.872727-61.672727l-13.963636-9.774545c-3.956364 6.283636-8.145455 12.567273-12.8 19.083636-36.305455-5.818182-82.152727-10.472727-137.774546-13.730909l-4.654545 14.661818c4.189091 1.163636 6.981818 2.56 8.843636 4.421818 14.894545 17.221818 27.461818 35.141818 37.469091 54.225455h-58.414545v16.290909z"  horiz-adv-x="1163" />

    
    <glyph glyph-name="dongtaizhongzu-text" unicode="&#58982;" d="M137.309091 185.48363600000005v-16.058181h84.247273v16.058181H137.309091z m-9.076364-62.836363v-16.290909H160.581818l-3.793454-13.498182c-9.890909-34.397091-17.92-55.761455-24.133819-64.232727-0.930909-0.465455-2.094545-0.930909-3.723636-1.396364l3.956364-15.825455c28.858182 5.12 55.854545 12.101818 80.523636 20.945455 2.327273-5.352727 4.654545-10.938182 6.981818-16.989091l14.429091 7.447273c-9.774545 23.505455-20.247273 45.149091-31.418182 65.163636l-14.196363-6.981818c6.050909-10.705455 11.869091-22.109091 17.92-34.676364-18.152727-6.749091-36.538182-12.101818-54.923637-15.825454 6.981818 15.36 15.127273 40.494545 24.436364 75.869091H230.4v16.290909H128.232727z m137.076364 78.429091v-47.010909h-31.418182v-16.29091h31.418182v-2.792727c-0.465455-62.603636-15.36-107.985455-44.450909-136.145454l12.567273-10.938182c31.650909 30.952727 47.941818 80.058182 48.64 147.083636v2.792727h34.443636l-0.698182-59.810909c-0.535273-27.368727-1.210182-44.893091-2.094545-52.596363-1.861818-13.265455-8.610909-20.014545-20.014546-20.014546-6.283636 0-13.730909 0.465455-22.109091 0.930909l3.723637-14.894545 16.407272-0.651636 4.072728-0.046546c20.014545 0 31.418182 9.541818 33.745454 28.392727l0.698182 7.400728c1.652364 20.992 2.56 63.488 2.56 127.581091h-50.734545v47.010909h-16.756364z m191.767273 2.792727c-0.930909-9.309091-2.792727-18.152727-5.352728-26.530909h-82.152727v-16.058182h76.334546c-4.189091-9.076364-9.309091-17.221818-15.825455-24.203636-14.661818-15.36-38.632727-27.461818-71.68-35.84l6.516364-15.36c27.927273 7.447273 49.803636 16.756364 65.163636 28.16 11.170909-8.843636 22.341818-18.850909 33.512727-30.021819l11.636364 11.636364c-12.567273 11.403636-23.738182 20.712727-33.978182 27.927273 0.698182 0.930909 1.396364 1.629091 2.327273 2.56 8.610909 9.774545 15.592727 21.643636 20.712727 35.141818h3.490909c11.636364-31.650909 43.054545-56.552727 94.72-74.705455l8.843637 14.429091c-46.312727 14.429091-75.170909 34.443636-86.574546 60.276364h74.472727v16.058182h-89.832727c1.861818 7.912727 3.490909 16.058182 4.421818 24.901818l-16.756363 1.629091z m-74.705455-137.541818c-4.421818-20.945455-11.636364-40.029091-21.410909-57.250909l14.429091-9.076364c10.007273 17.687273 17.92 38.632727 23.505454 62.836364l-16.523636 3.490909z m88.203636 8.378182l-14.661818-4.654546c7.447273-11.869091 14.196364-25.6 20.712728-41.192727l15.36 6.749091c-6.050909 13.963636-13.265455 26.996364-21.41091 39.098182z m69.585455-4.887273l-16.058182-5.12c10.938182-16.523636 20.945455-35.607273 30.021818-57.483637l15.36 6.749091c-8.378182 20.014545-18.152727 38.632727-29.323636 55.854546z m-42.589091-76.567273c8.843636 0 15.127273 2.094545 19.316364 6.050909 4.654545 4.654545 7.912727 17.221818 9.541818 38.167273l-15.825455 5.12-0.674909-8.843636c-1.047273-10.775273-2.676364-17.408-4.910545-20.014546-2.094545-2.792727-5.585455-4.189091-10.472727-4.189091h-50.734546c-6.981818 0-10.24 3.490909-10.24 10.472727v47.01091h-17.221818v-50.501819c0-15.36 7.214545-23.272727 22.109091-23.272727h59.112727z m120.087273 140.101818v-77.265454h71.912727v-16.058182h-82.618182v-13.498182h82.618182v-17.454545h-94.254545v-14.661819h205.730909v14.661819h-94.72v17.454545h83.316363v13.498182h-83.316363v16.058182h72.145454v77.265454h-72.145454v14.894546h91.461818v14.429091h-91.461818v17.687272c25.832727 1.629091 50.036364 3.490909 72.378182 5.818182l-5.12 13.963637c-46.312727-5.12-99.84-8.610909-160.349091-10.472728l2.792727-13.730909c25.6 0.930909 50.036364 2.094545 73.541818 3.490909v-16.756363h-90.996364v-14.429091h90.996364v-14.894546h-71.912727z m144.523636-63.767272h-55.854545v18.850909h55.854545v-18.850909z m-72.610909 0h-55.854545v18.850909h55.854545v-18.850909z m-55.854545 31.883636v18.385454h55.854545v-18.385454h-55.854545z m72.610909 18.385454h55.854545v-18.385454h-55.854545v18.385454z m199.912727-79.36c-21.876364-10.007273-47.709091-17.92-77.498182-23.970909l2.094546-16.523636c28.392727 6.050909 53.527273 14.429091 75.403636 24.669091v15.825454z m-36.538182 161.047273c-10.24-26.530909-22.109091-49.803636-35.84-70.283636-2.327273-3.258182-4.654545-5.352727-7.214545-6.283637l4.189091-15.592727 27.461818 3.793455c4.491636 0.651636 9.006545 1.326545 13.498182 2.024727-13.265455-21.643636-24.436364-37.003636-33.745455-46.08-2.094545-1.861818-4.654545-3.490909-7.68-4.887273l4.421818-15.592727c23.272727 3.258182 47.476364 9.541818 72.843637 18.618182v15.36c-17.221818-6.516364-34.443636-11.636364-51.665455-15.36 14.661818 16.989091 33.047273 45.381818 55.389091 85.410909l-15.127273 5.818182-7.842909-14.498909c-2.56-4.654545-5.073455-9.122909-7.517091-13.428364-11.170909-1.861818-22.109091-3.490909-33.28-4.421818 12.8 17.221818 25.367273 40.261818 37.934546 69.12l-15.825455 6.283636z m147.316364-10.705454h-94.487273v-178.036364h-20.247273v-16.290909h134.516364v16.290909h-19.781818V190.836364z m-77.963637-178.036364v44.218182h61.44v-44.218182h-61.44z m0 60.043636v43.985455h61.44v-43.985455h-61.44z m0 59.810909v42.123637h61.44v-42.123637h-61.44zM778.077091 625.384727c23.086545-18.059636 36.468364-39.517091 36.468364-62.557091 0-44.450909-49.850182-83.083636-123.136-102.679272-19.642182-73.029818-58.181818-122.693818-102.56291-122.693819-23.04 0-44.497455 13.381818-62.580363 36.468364l33.210182 33.210182c10.961455-15.825455 21.597091-23.133091 29.370181-23.133091 10.426182 0 26.042182 13.218909 40.634182 42.426182 3.653818 7.307636 7.028364 15.220364 10.053818 23.645091a466.152727 466.152727 0 0 0-91.415272-2.397091l-2.327273-33.373091-100.770909 66.397091 109.312 53.387636-2.885818-39.982545c9.937455-0.721455 20.084364-1.093818 30.370909-1.093818 55.668364 0 107.217455 10.891636 143.755636 29.160727 29.207273 14.615273 42.426182 30.254545 42.426182 40.657454 0 7.773091-7.330909 18.385455-23.133091 29.370182l33.210182 33.186909zM588.846545 802.909091c53.387636 0 98.373818-71.912727 112.081455-169.984l39.889455 2.862545-53.41091-109.312-66.39709 100.770909 33.37309 2.373819c-4.770909 32.256-13.358545 61.277091-24.901818 84.317091C614.888727 743.144727 599.272727 756.363636 588.846545 756.363636c-10.426182 0-26.042182-13.218909-40.657454-42.426181a235.287273 235.287273 0 0 1-14.522182-37.236364 464.011636 464.011636 0 0 0 97.978182-0.186182l-43.915636-43.915636-5.911273 0.046545c-52.386909 0-101.143273-9.658182-137.146182-26.018909l-6.609455-3.141818c-29.207273-14.615273-42.426182-30.254545-42.426181-40.657455 0-10.426182 13.218909-26.042182 42.426181-40.657454 8.494545-4.235636 17.803636-8.075636 27.764364-11.496727l-35.979636-35.979637c-49.454545 21.341091-80.756364 52.922182-80.756364 88.133818 0 46.661818 54.923636 86.900364 134.190546 105.448728C501.806545 747.799273 542.114909 802.909091 588.846545 802.909091z"  horiz-adv-x="1163" />

    
    <glyph glyph-name="yijianhujiao-text" unicode="&#58983;" d="M580.864 686.429091c105.984-2.746182 190.603636-27.787636 231.703273-80.756364 39.191273-50.455273 28.113455-104.192-1.629091-138.635636-14.056727-16.290909-31.953455-24.110545-52.759273-21.876364-10.007273 1.070545-25.134545 7.610182-47.755636 19.362909l-8.936728 4.677819-13.498181 7.330909-10.007273 5.538909-12.753455 7.214545-20.573091 12.032-0.512 55.109818c-38.865455 11.706182-83.316364 13.079273-117.899636 2.490182l-6.376727-2.117818-0.069818-46.801455-12.218182-8.587636-19.549091-13.405091-9.821091-6.562909-9.728-6.4-10.472727-6.749091-9.844364-6.167273-8.843636-5.282909c-9.681455-5.678545-17.314909-9.541818-22.946909-11.473454-26.181818-9.122909-51.130182 2.094545-70.469819 26.647273-27.345455 34.722909-29.509818 102.167273 10.705455 143.243636 43.52 44.381091 136.005818 73.448727 224.256 71.168z m-190.999273-103.749818c-21.108364-21.550545-22.760727-62.370909-7.400727-81.850182 8.727273-11.077818 13.917091-13.149091 18.757818-11.450182l2.653091 1.140364 4.049455 2.048a244.363636 244.363636 0 0 1 8.471272 4.770909l7.074909 4.258909 9.332364 5.818182 10.100364 6.516363 9.378909 6.167273 9.425454 6.306909 11.589819 7.936 0.09309 56.017455 39.237819 13.079272c43.403636 13.265455 97.093818 11.985455 144.965818-2.443636l32.814545-9.890909 0.535273-62.882909 9.658182-5.469091 9.541818-5.306182 12.986182-7.028363 12.637091-6.586182 11.147636-5.538909 8.331636-3.84c3.072-1.349818 5.282909-2.234182 6.609455-2.676364l1.210182-0.349091c5.003636-0.535273 8.145455 0.791273 12.637091 6.004364 19.805091 22.970182 21.713455 51.874909 0.093091 79.709091-28.928 37.306182-97.442909 60.206545-196.142546 62.743272-76.637091 2.001455-156.555636-23.272727-189.789091-57.204363zM128 105.42545500000006v-16.756364h209.221818v16.756364H128z m243.665455 12.8v-4.887273h18.850909v-28.625455h-26.065455v-15.36h26.065455v-53.061818c0-3.258182-2.094545-5.585455-6.283637-7.214545l6.749091-13.963637c15.36 5.818182 29.090909 13.265455 40.96 22.109091l-2.792727 14.429091c-7.912727-6.516364-15.825455-11.636364-23.505455-15.825454v53.527272h23.970909v15.36h-23.970909v28.625455h20.48v14.894545h-50.036363c3.956364 9.774545 7.68 20.014545 10.938182 31.185455h39.796363v16.058182h-35.374545c1.861818 7.912727 3.490909 16.058182 5.352727 24.669091l-15.825455 3.258181c-5.12-29.323636-13.032727-56.087273-23.970909-80.290909l13.032728-8.378182 1.629091 3.49091z m186.88-14.196364v32.349091h10.938181v13.498182H558.545455v33.28h-32.349091v17.221818h-15.127273v-17.221818h-23.04v-13.498182h23.04v-19.781818h-30.952727v-13.498182h30.952727v-18.850909h-23.04v-13.498182h23.04v-17.92h-25.367273v-13.265455h25.367273v-18.385454h-31.185455v-13.963637h31.185455v-22.807272h15.127273v22.807272h40.727272v13.963637h-40.727272v18.385454h34.909091v13.265455h-34.909091v17.92H558.545455z m-32.349091 65.629091h18.152727v-19.781818h-18.152727v19.781818z m0-33.28h18.152727v-18.850909h-18.152727v18.850909z m9.774545-128.930909c-22.574545 0.930909-39.098182 3.723636-49.570909 8.843636-7.447273 3.490909-14.429091 8.843636-20.48 16.290909 7.214545 20.48 11.170909 45.381818 11.636364 74.472727v9.076364h-23.970909c7.68 13.963636 15.36 30.487273 23.272727 50.036364v13.730909h-42.123637v-14.429091h26.996364c-7.447273-18.385455-16.058182-35.607273-25.367273-51.432727v-11.636364h27.694546c-0.930909-20.48-3.723636-38.632727-8.378182-54.458182-5.585455 10.705455-10.007273 22.807273-13.032727 36.538182l-12.567273-4.654545c4.654545-19.549091 11.170909-35.84 19.316364-48.872728-5.12-11.636364-11.869091-21.643636-19.781819-30.021818l11.403637-11.170909c7.214545 7.912727 13.498182 16.989091 18.618182 27.694545 4.189091-4.887273 9.076364-9.076364 14.661818-12.567272 12.101818-7.912727 35.607273-12.101818 70.050909-12.567273h25.367273l3.025454 16.058182-13.451636-0.558546c-6.749091-0.232727-14.545455-0.372364-23.319273-0.372363z m246.690909 154.996363c-5.585455-22.109091-12.334545-40.261818-19.781818-54.690909l14.894545-5.585454c8.378182 16.290909 15.127273 34.909091 20.247273 56.32l-15.36 3.956363z m-89.367273-8.145454l-14.661818-4.654546c6.516364-15.36 12.101818-31.418182 16.523637-48.174545l14.894545 3.956364c-4.887273 18.618182-10.472727 34.909091-16.756364 48.872727z m28.625455-165.236364c15.127273 0 22.807273 6.981818 22.807273 20.712727v64.232728h59.578182v16.058182H744.727273v85.410909c18.618182 2.792727 36.305455 6.516364 53.527272 10.938181l-7.912727 13.963637c-31.650909-8.843636-70.981818-14.429091-117.992727-16.989091l5.12-14.661818c17.221818 0.930909 34.210909 2.327273 50.501818 4.421818v-83.083636h-58.181818v-16.058182h58.181818v-60.043637c0-6.516364-4.189091-10.007273-12.101818-10.007272-7.447273 0-14.894545 0.465455-22.807273 1.163636l3.490909-16.058182h25.367273z m-104.96 37.003637h26.996364v-13.963637h16.058181v170.356364h-59.112727v-175.941818h16.058182v19.549091z m26.996364 15.592727h-26.996364v125.44h26.996364v-125.44z m359.796363 159.185454v-133.585454c-17.687273-6.050909-35.607273-11.170909-53.527272-15.36v132.421818h-17.221819v-130.792727c0-3.723636-2.56-6.283636-7.447272-8.145455l5.12-14.894545c25.367273 5.818182 49.803636 12.334545 73.076363 19.781818v-61.672727h16.989091v212.247272h-16.989091z m-102.167272-18.152727h-68.189091v-171.985454h16.523636v16.756363h34.909091v-11.869091h16.756364v167.098182z m-51.665455-139.170909v122.88h34.909091v-122.88h-34.909091z"  horiz-adv-x="1163" />

    
    </font>
</defs>
</svg>
